<?xml version="1.0" encoding="utf-8" standalone="no"?>
<!DOCTYPE svg PUBLIC "-//W3C//DTD SVG 1.1//EN"
  "http://www.w3.org/Graphics/SVG/1.1/DTD/svg11.dtd">
<!-- Created with matplotlib (http://matplotlib.org/) -->
<svg height="357pt" version="1.1" viewBox="0 0 509 357" width="509pt" xmlns="http://www.w3.org/2000/svg" xmlns:xlink="http://www.w3.org/1999/xlink">
 <defs>
  <style type="text/css">
*{stroke-linecap:butt;stroke-linejoin:round;stroke-miterlimit:100000;}
  </style>
 </defs>
 <g id="figure_1">
  <g id="patch_1">
   <path d="M 0 357.077813 
L 509.550469 357.077813 
L 509.550469 0 
L 0 0 
z
" style="fill:#ffffff;"/>
  </g>
  <g id="axes_1">
   <g id="patch_2">
    <path d="M 49.000469 318.672656 
L 495.400469 318.672656 
L 495.400469 11.772656 
L 49.000469 11.772656 
z
" style="fill:#eaeaf2;"/>
   </g>
   <g id="matplotlib.axis_1">
    <g id="xtick_1">
     <g id="line2d_1">
      <path clip-path="url(#p8f2d2550b3)" d="M 49.000469 318.672656 
L 49.000469 11.772656 
" style="fill:none;stroke:#ffffff;stroke-linecap:round;"/>
     </g>
     <g id="line2d_2">
      <defs>
       <path d="M 0 0 
L 0 0 
" id="m71ad07986e" style="stroke:#262626;"/>
      </defs>
      <g>
       <use style="fill:#262626;stroke:#262626;" x="49.00046875" xlink:href="#m71ad07986e" y="318.67265625"/>
      </g>
     </g>
     <g id="line2d_3">
      <g>
       <use style="fill:#262626;stroke:#262626;" x="49.00046875" xlink:href="#m71ad07986e" y="11.77265625"/>
      </g>
     </g>
     <g id="text_1">
      <!-- −0.2 -->
      <defs>
       <path d="M 4.15625 35.296875 
Q 4.15625 48 6.765625 55.734375 
Q 9.375 63.484375 14.515625 67.671875 
Q 19.671875 71.875 27.484375 71.875 
Q 33.25 71.875 37.59375 69.546875 
Q 41.9375 67.234375 44.765625 62.859375 
Q 47.609375 58.5 49.21875 52.21875 
Q 50.828125 45.953125 50.828125 35.296875 
Q 50.828125 22.703125 48.234375 14.96875 
Q 45.65625 7.234375 40.5 3 
Q 35.359375 -1.21875 27.484375 -1.21875 
Q 17.140625 -1.21875 11.234375 6.203125 
Q 4.15625 15.140625 4.15625 35.296875 
M 13.1875 35.296875 
Q 13.1875 17.671875 17.3125 11.828125 
Q 21.4375 6 27.484375 6 
Q 33.546875 6 37.671875 11.859375 
Q 41.796875 17.71875 41.796875 35.296875 
Q 41.796875 52.984375 37.671875 58.78125 
Q 33.546875 64.59375 27.390625 64.59375 
Q 21.34375 64.59375 17.71875 59.46875 
Q 13.1875 52.9375 13.1875 35.296875 
" id="ArialMT-30"/>
       <path d="M 52.828125 31.203125 
L 5.5625 31.203125 
L 5.5625 39.40625 
L 52.828125 39.40625 
z
" id="ArialMT-2212"/>
       <path d="M 50.34375 8.453125 
L 50.34375 0 
L 3.03125 0 
Q 2.9375 3.171875 4.046875 6.109375 
Q 5.859375 10.9375 9.828125 15.625 
Q 13.8125 20.3125 21.34375 26.46875 
Q 33.015625 36.03125 37.109375 41.625 
Q 41.21875 47.21875 41.21875 52.203125 
Q 41.21875 57.421875 37.46875 61 
Q 33.734375 64.59375 27.734375 64.59375 
Q 21.390625 64.59375 17.578125 60.78125 
Q 13.765625 56.984375 13.71875 50.25 
L 4.6875 51.171875 
Q 5.609375 61.28125 11.65625 66.578125 
Q 17.71875 71.875 27.9375 71.875 
Q 38.234375 71.875 44.234375 66.15625 
Q 50.25 60.453125 50.25 52 
Q 50.25 47.703125 48.484375 43.546875 
Q 46.734375 39.40625 42.65625 34.8125 
Q 38.578125 30.21875 29.109375 22.21875 
Q 21.1875 15.578125 18.9375 13.203125 
Q 16.703125 10.84375 15.234375 8.453125 
z
" id="ArialMT-32"/>
       <path d="M 9.078125 0 
L 9.078125 10.015625 
L 19.09375 10.015625 
L 19.09375 0 
z
" id="ArialMT-2e"/>
      </defs>
      <g style="fill:#262626;" transform="translate(39.13015625 332.83046875)scale(0.1 -0.1)">
       <use xlink:href="#ArialMT-2212"/>
       <use x="58.3984375" xlink:href="#ArialMT-30"/>
       <use x="114.013671875" xlink:href="#ArialMT-2e"/>
       <use x="141.796875" xlink:href="#ArialMT-32"/>
      </g>
     </g>
    </g>
    <g id="xtick_2">
     <g id="line2d_4">
      <path clip-path="url(#p8f2d2550b3)" d="M 112.771897 318.672656 
L 112.771897 11.772656 
" style="fill:none;stroke:#ffffff;stroke-linecap:round;"/>
     </g>
     <g id="line2d_5">
      <g>
       <use style="fill:#262626;stroke:#262626;" x="112.771897321" xlink:href="#m71ad07986e" y="318.67265625"/>
      </g>
     </g>
     <g id="line2d_6">
      <g>
       <use style="fill:#262626;stroke:#262626;" x="112.771897321" xlink:href="#m71ad07986e" y="11.77265625"/>
      </g>
     </g>
     <g id="text_2">
      <!-- 0.0 -->
      <g style="fill:#262626;" transform="translate(105.821897321 332.83046875)scale(0.1 -0.1)">
       <use xlink:href="#ArialMT-30"/>
       <use x="55.615234375" xlink:href="#ArialMT-2e"/>
       <use x="83.3984375" xlink:href="#ArialMT-30"/>
      </g>
     </g>
    </g>
    <g id="xtick_3">
     <g id="line2d_7">
      <path clip-path="url(#p8f2d2550b3)" d="M 176.543326 318.672656 
L 176.543326 11.772656 
" style="fill:none;stroke:#ffffff;stroke-linecap:round;"/>
     </g>
     <g id="line2d_8">
      <g>
       <use style="fill:#262626;stroke:#262626;" x="176.543325893" xlink:href="#m71ad07986e" y="318.67265625"/>
      </g>
     </g>
     <g id="line2d_9">
      <g>
       <use style="fill:#262626;stroke:#262626;" x="176.543325893" xlink:href="#m71ad07986e" y="11.77265625"/>
      </g>
     </g>
     <g id="text_3">
      <!-- 0.2 -->
      <g style="fill:#262626;" transform="translate(169.593325893 332.83046875)scale(0.1 -0.1)">
       <use xlink:href="#ArialMT-30"/>
       <use x="55.615234375" xlink:href="#ArialMT-2e"/>
       <use x="83.3984375" xlink:href="#ArialMT-32"/>
      </g>
     </g>
    </g>
    <g id="xtick_4">
     <g id="line2d_10">
      <path clip-path="url(#p8f2d2550b3)" d="M 240.314754 318.672656 
L 240.314754 11.772656 
" style="fill:none;stroke:#ffffff;stroke-linecap:round;"/>
     </g>
     <g id="line2d_11">
      <g>
       <use style="fill:#262626;stroke:#262626;" x="240.314754464" xlink:href="#m71ad07986e" y="318.67265625"/>
      </g>
     </g>
     <g id="line2d_12">
      <g>
       <use style="fill:#262626;stroke:#262626;" x="240.314754464" xlink:href="#m71ad07986e" y="11.77265625"/>
      </g>
     </g>
     <g id="text_4">
      <!-- 0.4 -->
      <defs>
       <path d="M 32.328125 0 
L 32.328125 17.140625 
L 1.265625 17.140625 
L 1.265625 25.203125 
L 33.9375 71.578125 
L 41.109375 71.578125 
L 41.109375 25.203125 
L 50.78125 25.203125 
L 50.78125 17.140625 
L 41.109375 17.140625 
L 41.109375 0 
z
M 32.328125 25.203125 
L 32.328125 57.46875 
L 9.90625 25.203125 
z
" id="ArialMT-34"/>
      </defs>
      <g style="fill:#262626;" transform="translate(233.364754464 332.83046875)scale(0.1 -0.1)">
       <use xlink:href="#ArialMT-30"/>
       <use x="55.615234375" xlink:href="#ArialMT-2e"/>
       <use x="83.3984375" xlink:href="#ArialMT-34"/>
      </g>
     </g>
    </g>
    <g id="xtick_5">
     <g id="line2d_13">
      <path clip-path="url(#p8f2d2550b3)" d="M 304.086183 318.672656 
L 304.086183 11.772656 
" style="fill:none;stroke:#ffffff;stroke-linecap:round;"/>
     </g>
     <g id="line2d_14">
      <g>
       <use style="fill:#262626;stroke:#262626;" x="304.086183036" xlink:href="#m71ad07986e" y="318.67265625"/>
      </g>
     </g>
     <g id="line2d_15">
      <g>
       <use style="fill:#262626;stroke:#262626;" x="304.086183036" xlink:href="#m71ad07986e" y="11.77265625"/>
      </g>
     </g>
     <g id="text_5">
      <!-- 0.6 -->
      <defs>
       <path d="M 49.75 54.046875 
L 41.015625 53.375 
Q 39.84375 58.546875 37.703125 60.890625 
Q 34.125 64.65625 28.90625 64.65625 
Q 24.703125 64.65625 21.53125 62.3125 
Q 17.390625 59.28125 14.984375 53.46875 
Q 12.59375 47.65625 12.5 36.921875 
Q 15.671875 41.75 20.265625 44.09375 
Q 24.859375 46.4375 29.890625 46.4375 
Q 38.671875 46.4375 44.84375 39.96875 
Q 51.03125 33.5 51.03125 23.25 
Q 51.03125 16.5 48.125 10.71875 
Q 45.21875 4.9375 40.140625 1.859375 
Q 35.0625 -1.21875 28.609375 -1.21875 
Q 17.625 -1.21875 10.6875 6.859375 
Q 3.765625 14.9375 3.765625 33.5 
Q 3.765625 54.25 11.421875 63.671875 
Q 18.109375 71.875 29.4375 71.875 
Q 37.890625 71.875 43.28125 67.140625 
Q 48.6875 62.40625 49.75 54.046875 
M 13.875 23.1875 
Q 13.875 18.65625 15.796875 14.5 
Q 17.71875 10.359375 21.1875 8.171875 
Q 24.65625 6 28.46875 6 
Q 34.03125 6 38.03125 10.484375 
Q 42.046875 14.984375 42.046875 22.703125 
Q 42.046875 30.125 38.078125 34.390625 
Q 34.125 38.671875 28.125 38.671875 
Q 22.171875 38.671875 18.015625 34.390625 
Q 13.875 30.125 13.875 23.1875 
" id="ArialMT-36"/>
      </defs>
      <g style="fill:#262626;" transform="translate(297.136183036 332.83046875)scale(0.1 -0.1)">
       <use xlink:href="#ArialMT-30"/>
       <use x="55.615234375" xlink:href="#ArialMT-2e"/>
       <use x="83.3984375" xlink:href="#ArialMT-36"/>
      </g>
     </g>
    </g>
    <g id="xtick_6">
     <g id="line2d_16">
      <path clip-path="url(#p8f2d2550b3)" d="M 367.857612 318.672656 
L 367.857612 11.772656 
" style="fill:none;stroke:#ffffff;stroke-linecap:round;"/>
     </g>
     <g id="line2d_17">
      <g>
       <use style="fill:#262626;stroke:#262626;" x="367.857611607" xlink:href="#m71ad07986e" y="318.67265625"/>
      </g>
     </g>
     <g id="line2d_18">
      <g>
       <use style="fill:#262626;stroke:#262626;" x="367.857611607" xlink:href="#m71ad07986e" y="11.77265625"/>
      </g>
     </g>
     <g id="text_6">
      <!-- 0.8 -->
      <defs>
       <path d="M 17.671875 38.8125 
Q 12.203125 40.828125 9.5625 44.53125 
Q 6.9375 48.25 6.9375 53.421875 
Q 6.9375 61.234375 12.546875 66.546875 
Q 18.171875 71.875 27.484375 71.875 
Q 36.859375 71.875 42.578125 66.421875 
Q 48.296875 60.984375 48.296875 53.171875 
Q 48.296875 48.1875 45.671875 44.5 
Q 43.0625 40.828125 37.75 38.8125 
Q 44.34375 36.671875 47.78125 31.875 
Q 51.21875 27.09375 51.21875 20.453125 
Q 51.21875 11.28125 44.71875 5.03125 
Q 38.234375 -1.21875 27.640625 -1.21875 
Q 17.046875 -1.21875 10.546875 5.046875 
Q 4.046875 11.328125 4.046875 20.703125 
Q 4.046875 27.6875 7.59375 32.390625 
Q 11.140625 37.109375 17.671875 38.8125 
M 15.921875 53.71875 
Q 15.921875 48.640625 19.1875 45.40625 
Q 22.46875 42.1875 27.6875 42.1875 
Q 32.765625 42.1875 36.015625 45.375 
Q 39.265625 48.578125 39.265625 53.21875 
Q 39.265625 58.0625 35.90625 61.359375 
Q 32.5625 64.65625 27.59375 64.65625 
Q 22.5625 64.65625 19.234375 61.421875 
Q 15.921875 58.203125 15.921875 53.71875 
M 13.09375 20.65625 
Q 13.09375 16.890625 14.875 13.375 
Q 16.65625 9.859375 20.171875 7.921875 
Q 23.6875 6 27.734375 6 
Q 34.03125 6 38.125 10.046875 
Q 42.234375 14.109375 42.234375 20.359375 
Q 42.234375 26.703125 38.015625 30.859375 
Q 33.796875 35.015625 27.4375 35.015625 
Q 21.234375 35.015625 17.15625 30.90625 
Q 13.09375 26.8125 13.09375 20.65625 
" id="ArialMT-38"/>
      </defs>
      <g style="fill:#262626;" transform="translate(360.907611607 332.83046875)scale(0.1 -0.1)">
       <use xlink:href="#ArialMT-30"/>
       <use x="55.615234375" xlink:href="#ArialMT-2e"/>
       <use x="83.3984375" xlink:href="#ArialMT-38"/>
      </g>
     </g>
    </g>
    <g id="xtick_7">
     <g id="line2d_19">
      <path clip-path="url(#p8f2d2550b3)" d="M 431.62904 318.672656 
L 431.62904 11.772656 
" style="fill:none;stroke:#ffffff;stroke-linecap:round;"/>
     </g>
     <g id="line2d_20">
      <g>
       <use style="fill:#262626;stroke:#262626;" x="431.629040179" xlink:href="#m71ad07986e" y="318.67265625"/>
      </g>
     </g>
     <g id="line2d_21">
      <g>
       <use style="fill:#262626;stroke:#262626;" x="431.629040179" xlink:href="#m71ad07986e" y="11.77265625"/>
      </g>
     </g>
     <g id="text_7">
      <!-- 1.0 -->
      <defs>
       <path d="M 37.25 0 
L 28.46875 0 
L 28.46875 56 
Q 25.296875 52.984375 20.140625 49.953125 
Q 14.984375 46.921875 10.890625 45.40625 
L 10.890625 53.90625 
Q 18.265625 57.375 23.78125 62.296875 
Q 29.296875 67.234375 31.59375 71.875 
L 37.25 71.875 
z
" id="ArialMT-31"/>
      </defs>
      <g style="fill:#262626;" transform="translate(424.679040179 332.83046875)scale(0.1 -0.1)">
       <use xlink:href="#ArialMT-31"/>
       <use x="55.615234375" xlink:href="#ArialMT-2e"/>
       <use x="83.3984375" xlink:href="#ArialMT-30"/>
      </g>
     </g>
    </g>
    <g id="xtick_8">
     <g id="line2d_22">
      <path clip-path="url(#p8f2d2550b3)" d="M 495.400469 318.672656 
L 495.400469 11.772656 
" style="fill:none;stroke:#ffffff;stroke-linecap:round;"/>
     </g>
     <g id="line2d_23">
      <g>
       <use style="fill:#262626;stroke:#262626;" x="495.40046875" xlink:href="#m71ad07986e" y="318.67265625"/>
      </g>
     </g>
     <g id="line2d_24">
      <g>
       <use style="fill:#262626;stroke:#262626;" x="495.40046875" xlink:href="#m71ad07986e" y="11.77265625"/>
      </g>
     </g>
     <g id="text_8">
      <!-- 1.2 -->
      <g style="fill:#262626;" transform="translate(488.45046875 332.83046875)scale(0.1 -0.1)">
       <use xlink:href="#ArialMT-31"/>
       <use x="55.615234375" xlink:href="#ArialMT-2e"/>
       <use x="83.3984375" xlink:href="#ArialMT-32"/>
      </g>
     </g>
    </g>
    <g id="text_9">
     <!-- $K$ -->
     <defs>
      <path d="M 4.6875 0 
Q 3.71875 0 3.71875 1.3125 
Q 3.765625 1.5625 3.90625 2.171875 
Q 4.046875 2.78125 4.3125 3.140625 
Q 4.59375 3.515625 4.984375 3.515625 
Q 11.078125 3.515625 13.484375 4.203125 
Q 14.796875 4.640625 15.375 6.890625 
L 29.109375 61.8125 
Q 29.296875 62.796875 29.296875 63.1875 
Q 29.296875 64.265625 28.078125 64.40625 
Q 26.21875 64.796875 20.90625 64.796875 
Q 19.921875 64.796875 19.921875 66.109375 
Q 20.265625 67.390625 20.453125 67.84375 
Q 20.65625 68.3125 21.578125 68.3125 
L 48.484375 68.3125 
Q 49.515625 68.3125 49.515625 67 
Q 49.46875 66.75 49.3125 66.15625 
Q 49.171875 65.578125 48.921875 65.1875 
Q 48.6875 64.796875 48.1875 64.796875 
Q 42.09375 64.796875 39.703125 64.109375 
Q 38.375 63.625 37.796875 61.375 
L 29.6875 29 
L 68.890625 59.28125 
Q 69 59.46875 70.140625 60.609375 
Q 71.296875 61.765625 71.296875 62.890625 
Q 71.296875 64.796875 67.921875 64.796875 
Q 66.890625 64.796875 66.890625 66.109375 
Q 67.09375 66.890625 67.203125 67.328125 
Q 67.328125 67.78125 67.640625 68.046875 
Q 67.96875 68.3125 68.609375 68.3125 
L 87.984375 68.3125 
Q 88.53125 68.3125 88.765625 67.921875 
Q 89.015625 67.53125 89.015625 67 
Q 88.96875 66.75 88.796875 66.109375 
Q 88.625 65.484375 88.359375 65.140625 
Q 88.09375 64.796875 87.59375 64.796875 
Q 80.28125 64.796875 71.578125 58.015625 
Q 71.53125 57.953125 71.4375 57.921875 
Q 71.34375 57.90625 71.234375 57.875 
Q 71.140625 57.859375 71.09375 57.8125 
L 50.484375 41.796875 
L 65.484375 6.6875 
Q 66.84375 4.5 68.40625 4 
Q 69.96875 3.515625 73.1875 3.515625 
Q 74.21875 3.515625 74.21875 2.203125 
Q 73.921875 1.03125 73.625 0.515625 
Q 73.34375 0 72.515625 0 
L 49.3125 0 
Q 48.390625 0 48.390625 1.3125 
Q 48.53125 2.34375 48.71875 2.921875 
Q 48.921875 3.515625 49.703125 3.515625 
Q 52.25 3.515625 54.03125 4.03125 
Q 55.8125 4.546875 55.8125 6.390625 
Q 55.8125 7.078125 55.71875 7.421875 
L 43.3125 36.28125 
L 28.71875 25 
L 24.125 6.5 
Q 23.875 5.28125 23.875 5.078125 
Q 23.875 4.046875 25.09375 3.90625 
Q 27 3.515625 32.328125 3.515625 
Q 33.296875 3.515625 33.296875 2.203125 
Q 32.953125 0.78125 32.75 0.390625 
Q 32.5625 0 31.59375 0 
z
" id="Cmmi10-4b"/>
     </defs>
     <g style="fill:#262626;" transform="translate(267.52546875 347.6915625)scale(0.11 -0.11)">
      <use transform="translate(0.0 0.6875)" xlink:href="#Cmmi10-4b"/>
     </g>
    </g>
   </g>
   <g id="matplotlib.axis_2">
    <g id="ytick_1">
     <g id="line2d_25">
      <path clip-path="url(#p8f2d2550b3)" d="M 49.000469 318.672656 
L 495.400469 318.672656 
" style="fill:none;stroke:#ffffff;stroke-linecap:round;"/>
     </g>
     <g id="line2d_26">
      <g>
       <use style="fill:#262626;stroke:#262626;" x="49.00046875" xlink:href="#m71ad07986e" y="318.67265625"/>
      </g>
     </g>
     <g id="line2d_27">
      <g>
       <use style="fill:#262626;stroke:#262626;" x="495.40046875" xlink:href="#m71ad07986e" y="318.67265625"/>
      </g>
     </g>
     <g id="text_10">
      <!-- −0.2 -->
      <g style="fill:#262626;" transform="translate(22.25984375 321.2578125)scale(0.1 -0.1)">
       <use xlink:href="#ArialMT-2212"/>
       <use x="58.3984375" xlink:href="#ArialMT-30"/>
       <use x="114.013671875" xlink:href="#ArialMT-2e"/>
       <use x="141.796875" xlink:href="#ArialMT-32"/>
      </g>
     </g>
    </g>
    <g id="ytick_2">
     <g id="line2d_28">
      <path clip-path="url(#p8f2d2550b3)" d="M 49.000469 274.829799 
L 495.400469 274.829799 
" style="fill:none;stroke:#ffffff;stroke-linecap:round;"/>
     </g>
     <g id="line2d_29">
      <g>
       <use style="fill:#262626;stroke:#262626;" x="49.00046875" xlink:href="#m71ad07986e" y="274.829799107"/>
      </g>
     </g>
     <g id="line2d_30">
      <g>
       <use style="fill:#262626;stroke:#262626;" x="495.40046875" xlink:href="#m71ad07986e" y="274.829799107"/>
      </g>
     </g>
     <g id="text_11">
      <!-- 0.0 -->
      <g style="fill:#262626;" transform="translate(28.10046875 277.414955357)scale(0.1 -0.1)">
       <use xlink:href="#ArialMT-30"/>
       <use x="55.615234375" xlink:href="#ArialMT-2e"/>
       <use x="83.3984375" xlink:href="#ArialMT-30"/>
      </g>
     </g>
    </g>
    <g id="ytick_3">
     <g id="line2d_31">
      <path clip-path="url(#p8f2d2550b3)" d="M 49.000469 230.986942 
L 495.400469 230.986942 
" style="fill:none;stroke:#ffffff;stroke-linecap:round;"/>
     </g>
     <g id="line2d_32">
      <g>
       <use style="fill:#262626;stroke:#262626;" x="49.00046875" xlink:href="#m71ad07986e" y="230.986941964"/>
      </g>
     </g>
     <g id="line2d_33">
      <g>
       <use style="fill:#262626;stroke:#262626;" x="495.40046875" xlink:href="#m71ad07986e" y="230.986941964"/>
      </g>
     </g>
     <g id="text_12">
      <!-- 0.2 -->
      <g style="fill:#262626;" transform="translate(28.10046875 233.572098214)scale(0.1 -0.1)">
       <use xlink:href="#ArialMT-30"/>
       <use x="55.615234375" xlink:href="#ArialMT-2e"/>
       <use x="83.3984375" xlink:href="#ArialMT-32"/>
      </g>
     </g>
    </g>
    <g id="ytick_4">
     <g id="line2d_34">
      <path clip-path="url(#p8f2d2550b3)" d="M 49.000469 187.144085 
L 495.400469 187.144085 
" style="fill:none;stroke:#ffffff;stroke-linecap:round;"/>
     </g>
     <g id="line2d_35">
      <g>
       <use style="fill:#262626;stroke:#262626;" x="49.00046875" xlink:href="#m71ad07986e" y="187.144084821"/>
      </g>
     </g>
     <g id="line2d_36">
      <g>
       <use style="fill:#262626;stroke:#262626;" x="495.40046875" xlink:href="#m71ad07986e" y="187.144084821"/>
      </g>
     </g>
     <g id="text_13">
      <!-- 0.4 -->
      <g style="fill:#262626;" transform="translate(28.10046875 189.729241071)scale(0.1 -0.1)">
       <use xlink:href="#ArialMT-30"/>
       <use x="55.615234375" xlink:href="#ArialMT-2e"/>
       <use x="83.3984375" xlink:href="#ArialMT-34"/>
      </g>
     </g>
    </g>
    <g id="ytick_5">
     <g id="line2d_37">
      <path clip-path="url(#p8f2d2550b3)" d="M 49.000469 143.301228 
L 495.400469 143.301228 
" style="fill:none;stroke:#ffffff;stroke-linecap:round;"/>
     </g>
     <g id="line2d_38">
      <g>
       <use style="fill:#262626;stroke:#262626;" x="49.00046875" xlink:href="#m71ad07986e" y="143.301227679"/>
      </g>
     </g>
     <g id="line2d_39">
      <g>
       <use style="fill:#262626;stroke:#262626;" x="495.40046875" xlink:href="#m71ad07986e" y="143.301227679"/>
      </g>
     </g>
     <g id="text_14">
      <!-- 0.6 -->
      <g style="fill:#262626;" transform="translate(28.10046875 145.886383929)scale(0.1 -0.1)">
       <use xlink:href="#ArialMT-30"/>
       <use x="55.615234375" xlink:href="#ArialMT-2e"/>
       <use x="83.3984375" xlink:href="#ArialMT-36"/>
      </g>
     </g>
    </g>
    <g id="ytick_6">
     <g id="line2d_40">
      <path clip-path="url(#p8f2d2550b3)" d="M 49.000469 99.458371 
L 495.400469 99.458371 
" style="fill:none;stroke:#ffffff;stroke-linecap:round;"/>
     </g>
     <g id="line2d_41">
      <g>
       <use style="fill:#262626;stroke:#262626;" x="49.00046875" xlink:href="#m71ad07986e" y="99.4583705357"/>
      </g>
     </g>
     <g id="line2d_42">
      <g>
       <use style="fill:#262626;stroke:#262626;" x="495.40046875" xlink:href="#m71ad07986e" y="99.4583705357"/>
      </g>
     </g>
     <g id="text_15">
      <!-- 0.8 -->
      <g style="fill:#262626;" transform="translate(28.10046875 102.043526786)scale(0.1 -0.1)">
       <use xlink:href="#ArialMT-30"/>
       <use x="55.615234375" xlink:href="#ArialMT-2e"/>
       <use x="83.3984375" xlink:href="#ArialMT-38"/>
      </g>
     </g>
    </g>
    <g id="ytick_7">
     <g id="line2d_43">
      <path clip-path="url(#p8f2d2550b3)" d="M 49.000469 55.615513 
L 495.400469 55.615513 
" style="fill:none;stroke:#ffffff;stroke-linecap:round;"/>
     </g>
     <g id="line2d_44">
      <g>
       <use style="fill:#262626;stroke:#262626;" x="49.00046875" xlink:href="#m71ad07986e" y="55.6155133929"/>
      </g>
     </g>
     <g id="line2d_45">
      <g>
       <use style="fill:#262626;stroke:#262626;" x="495.40046875" xlink:href="#m71ad07986e" y="55.6155133929"/>
      </g>
     </g>
     <g id="text_16">
      <!-- 1.0 -->
      <g style="fill:#262626;" transform="translate(28.10046875 58.2006696429)scale(0.1 -0.1)">
       <use xlink:href="#ArialMT-31"/>
       <use x="55.615234375" xlink:href="#ArialMT-2e"/>
       <use x="83.3984375" xlink:href="#ArialMT-30"/>
      </g>
     </g>
    </g>
    <g id="ytick_8">
     <g id="line2d_46">
      <path clip-path="url(#p8f2d2550b3)" d="M 49.000469 11.772656 
L 495.400469 11.772656 
" style="fill:none;stroke:#ffffff;stroke-linecap:round;"/>
     </g>
     <g id="line2d_47">
      <g>
       <use style="fill:#262626;stroke:#262626;" x="49.00046875" xlink:href="#m71ad07986e" y="11.77265625"/>
      </g>
     </g>
     <g id="line2d_48">
      <g>
       <use style="fill:#262626;stroke:#262626;" x="495.40046875" xlink:href="#m71ad07986e" y="11.77265625"/>
      </g>
     </g>
     <g id="text_17">
      <!-- 1.2 -->
      <g style="fill:#262626;" transform="translate(28.10046875 14.3578125)scale(0.1 -0.1)">
       <use xlink:href="#ArialMT-31"/>
       <use x="55.615234375" xlink:href="#ArialMT-2e"/>
       <use x="83.3984375" xlink:href="#ArialMT-32"/>
      </g>
     </g>
    </g>
    <g id="text_18">
     <!-- $H$ -->
     <defs>
      <path d="M 4.6875 0 
Q 3.71875 0 3.71875 1.3125 
Q 3.765625 1.5625 3.90625 2.171875 
Q 4.046875 2.78125 4.3125 3.140625 
Q 4.59375 3.515625 4.984375 3.515625 
Q 11.078125 3.515625 13.484375 4.203125 
Q 14.796875 4.640625 15.375 6.890625 
L 29.109375 61.8125 
Q 29.296875 62.796875 29.296875 63.1875 
Q 29.296875 64.265625 28.078125 64.40625 
Q 26.21875 64.796875 20.90625 64.796875 
Q 19.921875 64.796875 19.921875 66.109375 
Q 20.265625 67.390625 20.453125 67.84375 
Q 20.65625 68.3125 21.578125 68.3125 
L 48.484375 68.3125 
Q 49.515625 68.3125 49.515625 67 
Q 49.46875 66.75 49.3125 66.15625 
Q 49.171875 65.578125 48.921875 65.1875 
Q 48.6875 64.796875 48.1875 64.796875 
Q 42.09375 64.796875 39.703125 64.109375 
Q 38.375 63.625 37.796875 61.375 
L 31.78125 37.3125 
L 61.8125 37.3125 
L 67.921875 61.8125 
Q 68.109375 62.796875 68.109375 63.1875 
Q 68.109375 64.265625 66.890625 64.40625 
Q 64.984375 64.796875 59.71875 64.796875 
Q 58.6875 64.796875 58.6875 66.109375 
Q 59.03125 67.390625 59.21875 67.84375 
Q 59.421875 68.3125 60.40625 68.3125 
L 87.3125 68.3125 
Q 88.28125 68.3125 88.28125 67 
Q 88.234375 66.75 88.078125 66.140625 
Q 87.9375 65.53125 87.671875 65.15625 
Q 87.40625 64.796875 87.015625 64.796875 
Q 80.90625 64.796875 78.515625 64.109375 
Q 77.203125 63.671875 76.609375 61.375 
L 62.890625 6.5 
Q 62.703125 5.515625 62.703125 5.078125 
Q 62.703125 4.046875 63.921875 3.90625 
Q 65.828125 3.515625 71.09375 3.515625 
Q 72.125 3.515625 72.125 2.203125 
Q 71.828125 1.03125 71.53125 0.515625 
Q 71.234375 0 70.40625 0 
L 43.5 0 
Q 42.484375 0 42.484375 1.3125 
Q 42.671875 2.046875 42.765625 2.390625 
Q 42.875 2.734375 43.140625 3.125 
Q 43.40625 3.515625 43.796875 3.515625 
Q 49.90625 3.515625 52.296875 4.203125 
Q 53.609375 4.640625 54.203125 6.890625 
L 60.890625 33.796875 
L 30.90625 33.796875 
L 24.125 6.5 
Q 23.875 5.28125 23.875 5.078125 
Q 23.875 4.046875 25.09375 3.90625 
Q 27 3.515625 32.328125 3.515625 
Q 33.296875 3.515625 33.296875 2.203125 
Q 32.953125 0.875 32.734375 0.4375 
Q 32.515625 0 31.59375 0 
z
" id="Cmmi10-48"/>
     </defs>
     <g style="fill:#262626;" transform="translate(15.07359375 169.84265625)rotate(-90.0)scale(0.11 -0.11)">
      <use transform="translate(0.0 0.6875)" xlink:href="#Cmmi10-48"/>
     </g>
    </g>
   </g>
   <g id="PathCollection_1">
    <defs>
     <path d="M 0 2.236068 
C 0.593012 2.236068 1.161816 2.000462 1.581139 1.581139 
C 2.000462 1.161816 2.236068 0.593012 2.236068 0 
C 2.236068 -0.593012 2.000462 -1.161816 1.581139 -1.581139 
C 1.161816 -2.000462 0.593012 -2.236068 0 -2.236068 
C -0.593012 -2.236068 -1.161816 -2.000462 -1.581139 -1.581139 
C -2.000462 -1.161816 -2.236068 -0.593012 -2.236068 0 
C -2.236068 0.593012 -2.000462 1.161816 -1.581139 1.581139 
C -1.161816 2.000462 -0.593012 2.236068 0 2.236068 
z
" id="C0_0_49dde3f7d7"/>
    </defs>
    <g clip-path="url(#p8f2d2550b3)">
     <use style="fill:#bf00bf;fill-opacity:0.5;" x="112.771897321" xlink:href="#C0_0_49dde3f7d7" y="274.829799118"/>
    </g>
    <g clip-path="url(#p8f2d2550b3)">
     <use style="fill:none;" x="426.646897321" xlink:href="#C0_0_49dde3f7d7" y="107.314919223"/>
    </g>
    <g clip-path="url(#p8f2d2550b3)">
     <use style="fill:#bfbf00;fill-opacity:0.5;" x="117.754040179" xlink:href="#C0_0_49dde3f7d7" y="131.444289508"/>
    </g>
    <g clip-path="url(#p8f2d2550b3)">
     <use style="fill:none;" x="429.13796875" xlink:href="#C0_0_49dde3f7d7" y="120.591081848"/>
    </g>
    <g clip-path="url(#p8f2d2550b3)">
     <use style="fill:#bf00bf;fill-opacity:0.5;" x="112.771897321" xlink:href="#C0_0_49dde3f7d7" y="128.686942006"/>
    </g>
    <g clip-path="url(#p8f2d2550b3)">
     <use style="fill:none;" x="424.155825893" xlink:href="#C0_0_49dde3f7d7" y="116.925069116"/>
    </g>
    <g clip-path="url(#p8f2d2550b3)">
     <use style="fill:none;" x="117.754040179" xlink:href="#C0_0_49dde3f7d7" y="119.749657961"/>
    </g>
    <g clip-path="url(#p8f2d2550b3)">
     <use style="fill:none;" x="431.629040179" xlink:href="#C0_0_49dde3f7d7" y="274.829799118"/>
    </g>
    <g clip-path="url(#p8f2d2550b3)">
     <use style="fill:#008000;fill-opacity:0.5;" x="112.771897321" xlink:href="#C0_0_49dde3f7d7" y="274.829799118"/>
    </g>
    <g clip-path="url(#p8f2d2550b3)">
     <use style="fill:none;" x="421.664754464" xlink:href="#C0_0_49dde3f7d7" y="57.9508765074"/>
    </g>
    <g clip-path="url(#p8f2d2550b3)">
     <use style="fill:#bfbf00;fill-opacity:0.5;" x="117.754040179" xlink:href="#C0_0_49dde3f7d7" y="131.444289508"/>
    </g>
    <g clip-path="url(#p8f2d2550b3)">
     <use style="fill:none;" x="426.646897321" xlink:href="#C0_0_49dde3f7d7" y="107.213602528"/>
    </g>
    <g clip-path="url(#p8f2d2550b3)">
     <use style="fill:#bfbf00;fill-opacity:0.5;" x="112.771897321" xlink:href="#C0_0_49dde3f7d7" y="128.686942006"/>
    </g>
    <g clip-path="url(#p8f2d2550b3)">
     <use style="fill:none;" x="188.788498884" xlink:href="#C0_0_49dde3f7d7" y="109.691095023"/>
    </g>
    <g clip-path="url(#p8f2d2550b3)">
     <use style="fill:#bfbf00;fill-opacity:0.5;" x="117.754040179" xlink:href="#C0_0_49dde3f7d7" y="108.055026414"/>
    </g>
    <g clip-path="url(#p8f2d2550b3)">
     <use style="fill:none;" x="426.646897321" xlink:href="#C0_0_49dde3f7d7" y="130.302548436"/>
    </g>
    <g clip-path="url(#p8f2d2550b3)">
     <use style="fill:#bf00bf;fill-opacity:0.5;" x="117.754040179" xlink:href="#C0_0_49dde3f7d7" y="130.302548436"/>
    </g>
    <g clip-path="url(#p8f2d2550b3)">
     <use style="fill:none;" x="429.13796875" xlink:href="#C0_0_49dde3f7d7" y="118.60791689"/>
    </g>
    <g clip-path="url(#p8f2d2550b3)">
     <use style="fill:#bfbf00;fill-opacity:0.5;" x="115.26296875" xlink:href="#C0_0_49dde3f7d7" y="274.829799118"/>
    </g>
    <g clip-path="url(#p8f2d2550b3)">
     <use style="fill:none;" x="431.629040179" xlink:href="#C0_0_49dde3f7d7" y="274.829799118"/>
    </g>
    <g clip-path="url(#p8f2d2550b3)">
     <use style="fill:none;" x="117.754040179" xlink:href="#C0_0_49dde3f7d7" y="118.908234074"/>
    </g>
    <g clip-path="url(#p8f2d2550b3)">
     <use style="fill:none;" x="431.629040179" xlink:href="#C0_0_49dde3f7d7" y="274.829799118"/>
    </g>
    <g clip-path="url(#p8f2d2550b3)">
     <use style="fill:#bfbf00;fill-opacity:0.5;" x="116.508504464" xlink:href="#C0_0_49dde3f7d7" y="274.829799118"/>
    </g>
    <g clip-path="url(#p8f2d2550b3)">
     <use style="fill:none;" x="431.629040179" xlink:href="#C0_0_49dde3f7d7" y="274.829799118"/>
    </g>
    <g clip-path="url(#p8f2d2550b3)">
     <use style="fill:#008000;fill-opacity:0.5;" x="117.754040179" xlink:href="#C0_0_49dde3f7d7" y="130.302548436"/>
    </g>
    <g clip-path="url(#p8f2d2550b3)">
     <use style="fill:none;" x="424.155825893" xlink:href="#C0_0_49dde3f7d7" y="57.0031457898"/>
    </g>
    <g clip-path="url(#p8f2d2550b3)">
     <use style="fill:#bfbf00;fill-opacity:0.5;" x="115.26296875" xlink:href="#C0_0_49dde3f7d7" y="274.829799118"/>
    </g>
    <g clip-path="url(#p8f2d2550b3)">
     <use style="fill:none;" x="429.13796875" xlink:href="#C0_0_49dde3f7d7" y="131.918154867"/>
    </g>
    <g clip-path="url(#p8f2d2550b3)">
     <use style="fill:#bfbf00;fill-opacity:0.5;" x="116.469581473" xlink:href="#C0_0_49dde3f7d7" y="91.5084404385"/>
    </g>
    <g clip-path="url(#p8f2d2550b3)">
     <use style="fill:none;" x="426.646897321" xlink:href="#C0_0_49dde3f7d7" y="128.686942006"/>
    </g>
    <g clip-path="url(#p8f2d2550b3)">
     <use style="fill:#bfbf00;fill-opacity:0.5;" x="271.966930804" xlink:href="#C0_0_49dde3f7d7" y="55.6155134772"/>
    </g>
    <g clip-path="url(#p8f2d2550b3)">
     <use style="fill:none;" x="431.629040179" xlink:href="#C0_0_49dde3f7d7" y="274.829799118"/>
    </g>
    <g clip-path="url(#p8f2d2550b3)">
     <use style="fill:#bf00bf;fill-opacity:0.5;" x="112.771897321" xlink:href="#C0_0_49dde3f7d7" y="274.829799118"/>
    </g>
    <g clip-path="url(#p8f2d2550b3)">
     <use style="fill:none;" x="426.646897321" xlink:href="#C0_0_49dde3f7d7" y="107.314919223"/>
    </g>
    <g clip-path="url(#p8f2d2550b3)">
     <use style="fill:#bfbf00;fill-opacity:0.5;" x="117.754040179" xlink:href="#C0_0_49dde3f7d7" y="131.444289508"/>
    </g>
    <g clip-path="url(#p8f2d2550b3)">
     <use style="fill:none;" x="429.13796875" xlink:href="#C0_0_49dde3f7d7" y="120.591081848"/>
    </g>
    <g clip-path="url(#p8f2d2550b3)">
     <use style="fill:#bf00bf;fill-opacity:0.5;" x="112.771897321" xlink:href="#C0_0_49dde3f7d7" y="128.686942006"/>
    </g>
    <g clip-path="url(#p8f2d2550b3)">
     <use style="fill:none;" x="426.646897321" xlink:href="#C0_0_49dde3f7d7" y="85.9428964391"/>
    </g>
    <g clip-path="url(#p8f2d2550b3)">
     <use style="fill:#bfbf00;fill-opacity:0.5;" x="117.754040179" xlink:href="#C0_0_49dde3f7d7" y="119.749657961"/>
    </g>
    <g clip-path="url(#p8f2d2550b3)">
     <use style="fill:none;" x="429.13796875" xlink:href="#C0_0_49dde3f7d7" y="133.059895938"/>
    </g>
    <g clip-path="url(#p8f2d2550b3)">
     <use style="fill:#008000;fill-opacity:0.5;" x="112.771897321" xlink:href="#C0_0_49dde3f7d7" y="274.829799118"/>
    </g>
    <g clip-path="url(#p8f2d2550b3)">
     <use style="fill:none;" x="424.155825893" xlink:href="#C0_0_49dde3f7d7" y="103.611158089"/>
    </g>
    <g clip-path="url(#p8f2d2550b3)">
     <use style="fill:#bfbf00;fill-opacity:0.5;" x="117.754040179" xlink:href="#C0_0_49dde3f7d7" y="131.444289508"/>
    </g>
    <g clip-path="url(#p8f2d2550b3)">
     <use style="fill:none;" x="426.646897321" xlink:href="#C0_0_49dde3f7d7" y="107.213602528"/>
    </g>
    <g clip-path="url(#p8f2d2550b3)">
     <use style="fill:#bfbf00;fill-opacity:0.5;" x="112.771897321" xlink:href="#C0_0_49dde3f7d7" y="128.686942006"/>
    </g>
    <g clip-path="url(#p8f2d2550b3)">
     <use style="fill:none;" x="270.643549107" xlink:href="#C0_0_49dde3f7d7" y="55.6155134772"/>
    </g>
    <g clip-path="url(#p8f2d2550b3)">
     <use style="fill:#bfbf00;fill-opacity:0.5;" x="117.754040179" xlink:href="#C0_0_49dde3f7d7" y="108.055026414"/>
    </g>
    <g clip-path="url(#p8f2d2550b3)">
     <use style="fill:none;" x="426.646897321" xlink:href="#C0_0_49dde3f7d7" y="107.213602528"/>
    </g>
    <g clip-path="url(#p8f2d2550b3)">
     <use style="fill:#bf00bf;fill-opacity:0.5;" x="117.754040179" xlink:href="#C0_0_49dde3f7d7" y="130.302548436"/>
    </g>
    <g clip-path="url(#p8f2d2550b3)">
     <use style="fill:none;" x="429.13796875" xlink:href="#C0_0_49dde3f7d7" y="118.60791689"/>
    </g>
    <g clip-path="url(#p8f2d2550b3)">
     <use style="fill:#bfbf00;fill-opacity:0.5;" x="431.629040179" xlink:href="#C0_0_49dde3f7d7" y="201.758370557"/>
    </g>
    <g clip-path="url(#p8f2d2550b3)">
     <use style="fill:none;" x="431.629040179" xlink:href="#C0_0_49dde3f7d7" y="128.686942006"/>
    </g>
    <g clip-path="url(#p8f2d2550b3)">
     <use style="fill:#0000ff;fill-opacity:0.5;" x="117.754040179" xlink:href="#C0_0_49dde3f7d7" y="118.908234074"/>
    </g>
    <g clip-path="url(#p8f2d2550b3)">
     <use style="fill:none;" x="429.13796875" xlink:href="#C0_0_49dde3f7d7" y="130.776413795"/>
    </g>
    <g clip-path="url(#p8f2d2550b3)">
     <use style="fill:#bf00bf;fill-opacity:0.5;" x="351.914754464" xlink:href="#C0_0_49dde3f7d7" y="128.686942006"/>
    </g>
    <g clip-path="url(#p8f2d2550b3)">
     <use style="fill:none;" x="431.629040179" xlink:href="#C0_0_49dde3f7d7" y="274.829799118"/>
    </g>
    <g clip-path="url(#p8f2d2550b3)">
     <use style="fill:#008000;fill-opacity:0.5;" x="117.754040179" xlink:href="#C0_0_49dde3f7d7" y="130.302548436"/>
    </g>
    <g clip-path="url(#p8f2d2550b3)">
     <use style="fill:none;" x="350.708141741" xlink:href="#C0_0_49dde3f7d7" y="70.9619373254"/>
    </g>
    <g clip-path="url(#p8f2d2550b3)">
     <use style="fill:#008000;fill-opacity:0.5;" x="431.629040179" xlink:href="#C0_0_49dde3f7d7" y="201.758370557"/>
    </g>
    <g clip-path="url(#p8f2d2550b3)">
     <use style="fill:none;" x="429.13796875" xlink:href="#C0_0_49dde3f7d7" y="119.749657961"/>
    </g>
    <g clip-path="url(#p8f2d2550b3)">
     <use style="fill:#bf00bf;fill-opacity:0.5;" x="167.030546875" xlink:href="#C0_0_49dde3f7d7" y="111.067273706"/>
    </g>
    <g clip-path="url(#p8f2d2550b3)">
     <use style="fill:none;" x="424.155825893" xlink:href="#C0_0_49dde3f7d7" y="56.529280431"/>
    </g>
    <g clip-path="url(#p8f2d2550b3)">
     <use style="fill:#bf00bf;fill-opacity:0.5;" x="325.369274554" xlink:href="#C0_0_49dde3f7d7" y="55.6155134772"/>
    </g>
    <g clip-path="url(#p8f2d2550b3)">
     <use style="fill:none;" x="431.629040179" xlink:href="#C0_0_49dde3f7d7" y="274.829799118"/>
    </g>
    <g clip-path="url(#p8f2d2550b3)">
     <use style="fill:none;" x="112.771897321" xlink:href="#C0_0_49dde3f7d7" y="274.829799118"/>
    </g>
    <g clip-path="url(#p8f2d2550b3)">
     <use style="fill:none;" x="421.664754464" xlink:href="#C0_0_49dde3f7d7" y="58.4247418662"/>
    </g>
    <g clip-path="url(#p8f2d2550b3)">
     <use style="fill:none;" x="117.754040179" xlink:href="#C0_0_49dde3f7d7" y="131.444289508"/>
    </g>
    <g clip-path="url(#p8f2d2550b3)">
     <use style="fill:none;" x="424.155825893" xlink:href="#C0_0_49dde3f7d7" y="56.0554150723"/>
    </g>
    <g clip-path="url(#p8f2d2550b3)">
     <use style="fill:none;" x="112.771897321" xlink:href="#C0_0_49dde3f7d7" y="128.686942006"/>
    </g>
    <g clip-path="url(#p8f2d2550b3)">
     <use style="fill:none;" x="188.788498884" xlink:href="#C0_0_49dde3f7d7" y="110.058653551"/>
    </g>
    <g clip-path="url(#p8f2d2550b3)">
     <use style="fill:none;" x="116.469581473" xlink:href="#C0_0_49dde3f7d7" y="92.1763161505"/>
    </g>
    <g clip-path="url(#p8f2d2550b3)">
     <use style="fill:none;" x="426.646897321" xlink:href="#C0_0_49dde3f7d7" y="128.686942006"/>
    </g>
    <g clip-path="url(#p8f2d2550b3)">
     <use style="fill:none;" x="112.771897321" xlink:href="#C0_0_49dde3f7d7" y="274.829799118"/>
    </g>
    <g clip-path="url(#p8f2d2550b3)">
     <use style="fill:none;" x="296.955491071" xlink:href="#C0_0_49dde3f7d7" y="56.6096468177"/>
    </g>
    <g clip-path="url(#p8f2d2550b3)">
     <use style="fill:none;" x="117.754040179" xlink:href="#C0_0_49dde3f7d7" y="131.444289508"/>
    </g>
    <g clip-path="url(#p8f2d2550b3)">
     <use style="fill:none;" x="268.308169643" xlink:href="#C0_0_49dde3f7d7" y="55.6155134772"/>
    </g>
    <g clip-path="url(#p8f2d2550b3)">
     <use style="fill:none;" x="112.771897321" xlink:href="#C0_0_49dde3f7d7" y="128.686942006"/>
    </g>
    <g clip-path="url(#p8f2d2550b3)">
     <use style="fill:none;" x="112.771897321" xlink:href="#C0_0_49dde3f7d7" y="201.758370557"/>
    </g>
    <g clip-path="url(#p8f2d2550b3)">
     <use style="fill:none;" x="116.469581473" xlink:href="#C0_0_49dde3f7d7" y="67.2475299097"/>
    </g>
    <g clip-path="url(#p8f2d2550b3)">
     <use style="fill:none;" x="191.240647321" xlink:href="#C0_0_49dde3f7d7" y="108.181795424"/>
    </g>
    <g clip-path="url(#p8f2d2550b3)">
     <use style="fill:none;" x="117.754040179" xlink:href="#C0_0_49dde3f7d7" y="130.302548436"/>
    </g>
    <g clip-path="url(#p8f2d2550b3)">
     <use style="fill:none;" x="426.646897321" xlink:href="#C0_0_49dde3f7d7" y="108.055026414"/>
    </g>
    <g clip-path="url(#p8f2d2550b3)">
     <use style="fill:none;" x="115.26296875" xlink:href="#C0_0_49dde3f7d7" y="274.829799118"/>
    </g>
    <g clip-path="url(#p8f2d2550b3)">
     <use style="fill:none;" x="429.13796875" xlink:href="#C0_0_49dde3f7d7" y="129.634672724"/>
    </g>
    <g clip-path="url(#p8f2d2550b3)">
     <use style="fill:none;" x="117.754040179" xlink:href="#C0_0_49dde3f7d7" y="107.213602528"/>
    </g>
    <g clip-path="url(#p8f2d2550b3)">
     <use style="fill:none;" x="426.646897321" xlink:href="#C0_0_49dde3f7d7" y="131.444289508"/>
    </g>
    <g clip-path="url(#p8f2d2550b3)">
     <use style="fill:none;" x="271.966930804" xlink:href="#C0_0_49dde3f7d7" y="55.6155134772"/>
    </g>
    <g clip-path="url(#p8f2d2550b3)">
     <use style="fill:none;" x="431.629040179" xlink:href="#C0_0_49dde3f7d7" y="274.829799118"/>
    </g>
    <g clip-path="url(#p8f2d2550b3)">
     <use style="fill:none;" x="117.754040179" xlink:href="#C0_0_49dde3f7d7" y="130.302548436"/>
    </g>
    <g clip-path="url(#p8f2d2550b3)">
     <use style="fill:none;" x="268.308169643" xlink:href="#C0_0_49dde3f7d7" y="55.6155134772"/>
    </g>
    <g clip-path="url(#p8f2d2550b3)">
     <use style="fill:none;" x="115.26296875" xlink:href="#C0_0_49dde3f7d7" y="274.829799118"/>
    </g>
    <g clip-path="url(#p8f2d2550b3)">
     <use style="fill:none;" x="426.646897321" xlink:href="#C0_0_49dde3f7d7" y="85.9428964391"/>
    </g>
    <g clip-path="url(#p8f2d2550b3)">
     <use style="fill:none;" x="116.469581473" xlink:href="#C0_0_49dde3f7d7" y="66.6932981643"/>
    </g>
    <g clip-path="url(#p8f2d2550b3)">
     <use style="fill:none;" x="191.240647321" xlink:href="#C0_0_49dde3f7d7" y="108.549353952"/>
    </g>
    <g clip-path="url(#p8f2d2550b3)">
     <use style="fill:none;" x="112.849743304" xlink:href="#C0_0_49dde3f7d7" y="201.758370557"/>
    </g>
    <g clip-path="url(#p8f2d2550b3)">
     <use style="fill:none;" x="431.629040179" xlink:href="#C0_0_49dde3f7d7" y="274.829799118"/>
    </g>
    <g clip-path="url(#p8f2d2550b3)">
     <use style="fill:none;" x="112.771897321" xlink:href="#C0_0_49dde3f7d7" y="274.829799118"/>
    </g>
    <g clip-path="url(#p8f2d2550b3)">
     <use style="fill:none;" x="424.155825893" xlink:href="#C0_0_49dde3f7d7" y="103.911475273"/>
    </g>
    <g clip-path="url(#p8f2d2550b3)">
     <use style="fill:none;" x="117.754040179" xlink:href="#C0_0_49dde3f7d7" y="131.444289508"/>
    </g>
    <g clip-path="url(#p8f2d2550b3)">
     <use style="fill:none;" x="350.708141741" xlink:href="#C0_0_49dde3f7d7" y="70.7080227642"/>
    </g>
    <g clip-path="url(#p8f2d2550b3)">
     <use style="fill:none;" x="112.771897321" xlink:href="#C0_0_49dde3f7d7" y="128.686942006"/>
    </g>
    <g clip-path="url(#p8f2d2550b3)">
     <use style="fill:none;" x="270.643549107" xlink:href="#C0_0_49dde3f7d7" y="55.6155134772"/>
    </g>
    <g clip-path="url(#p8f2d2550b3)">
     <use style="fill:none;" x="167.030546875" xlink:href="#C0_0_49dde3f7d7" y="111.067273706"/>
    </g>
    <g clip-path="url(#p8f2d2550b3)">
     <use style="fill:none;" x="424.155825893" xlink:href="#C0_0_49dde3f7d7" y="57.4770111486"/>
    </g>
    <g clip-path="url(#p8f2d2550b3)">
     <use style="fill:none;" x="112.771897321" xlink:href="#C0_0_49dde3f7d7" y="274.829799118"/>
    </g>
    <g clip-path="url(#p8f2d2550b3)">
     <use style="fill:none;" x="373.867321429" xlink:href="#C0_0_49dde3f7d7" y="96.261823581"/>
    </g>
    <g clip-path="url(#p8f2d2550b3)">
     <use style="fill:none;" x="117.754040179" xlink:href="#C0_0_49dde3f7d7" y="131.444289508"/>
    </g>
    <g clip-path="url(#p8f2d2550b3)">
     <use style="fill:none;" x="416.682611607" xlink:href="#C0_0_49dde3f7d7" y="101.433982778"/>
    </g>
    <g clip-path="url(#p8f2d2550b3)">
     <use style="fill:none;" x="112.771897321" xlink:href="#C0_0_49dde3f7d7" y="128.686942006"/>
    </g>
    <g clip-path="url(#p8f2d2550b3)">
     <use style="fill:none;" x="272.161545759" xlink:href="#C0_0_49dde3f7d7" y="55.6155134772"/>
    </g>
    <g clip-path="url(#p8f2d2550b3)">
     <use style="fill:#0000ff;fill-opacity:0.5;" x="211.869832589" xlink:href="#C0_0_49dde3f7d7" y="55.6155134772"/>
    </g>
    <g clip-path="url(#p8f2d2550b3)">
     <use style="fill:none;" x="421.664754464" xlink:href="#C0_0_49dde3f7d7" y="57.9508765074"/>
    </g>
    <g clip-path="url(#p8f2d2550b3)">
     <use style="fill:none;" x="117.754040179" xlink:href="#C0_0_49dde3f7d7" y="130.302548436"/>
    </g>
    <g clip-path="url(#p8f2d2550b3)">
     <use style="fill:none;" x="426.646897321" xlink:href="#C0_0_49dde3f7d7" y="108.055026414"/>
    </g>
    <g clip-path="url(#p8f2d2550b3)">
     <use style="fill:none;" x="431.629040179" xlink:href="#C0_0_49dde3f7d7" y="201.758370557"/>
    </g>
    <g clip-path="url(#p8f2d2550b3)">
     <use style="fill:none;" x="429.13796875" xlink:href="#C0_0_49dde3f7d7" y="117.766493003"/>
    </g>
    <g clip-path="url(#p8f2d2550b3)">
     <use style="fill:none;" x="117.754040179" xlink:href="#C0_0_49dde3f7d7" y="107.213602528"/>
    </g>
    <g clip-path="url(#p8f2d2550b3)">
     <use style="fill:none;" x="426.646897321" xlink:href="#C0_0_49dde3f7d7" y="108.055026414"/>
    </g>
    <g clip-path="url(#p8f2d2550b3)">
     <use style="fill:none;" x="325.369274554" xlink:href="#C0_0_49dde3f7d7" y="55.6155134772"/>
    </g>
    <g clip-path="url(#p8f2d2550b3)">
     <use style="fill:none;" x="431.629040179" xlink:href="#C0_0_49dde3f7d7" y="274.829799118"/>
    </g>
    <g clip-path="url(#p8f2d2550b3)">
     <use style="fill:none;" x="117.754040179" xlink:href="#C0_0_49dde3f7d7" y="130.302548436"/>
    </g>
    <g clip-path="url(#p8f2d2550b3)">
     <use style="fill:none;" x="416.682611607" xlink:href="#C0_0_49dde3f7d7" y="101.433982778"/>
    </g>
    <g clip-path="url(#p8f2d2550b3)">
     <use style="fill:none;" x="431.629040179" xlink:href="#C0_0_49dde3f7d7" y="201.758370557"/>
    </g>
    <g clip-path="url(#p8f2d2550b3)">
     <use style="fill:none;" x="426.646897321" xlink:href="#C0_0_49dde3f7d7" y="107.314919223"/>
    </g>
    <g clip-path="url(#p8f2d2550b3)">
     <use style="fill:none;" x="211.869832589" xlink:href="#C0_0_49dde3f7d7" y="55.6155134772"/>
    </g>
    <g clip-path="url(#p8f2d2550b3)">
     <use style="fill:none;" x="421.664754464" xlink:href="#C0_0_49dde3f7d7" y="58.4247418662"/>
    </g>
    <g clip-path="url(#p8f2d2550b3)">
     <use style="fill:none;" x="173.880993304" xlink:href="#C0_0_49dde3f7d7" y="96.5884805725"/>
    </g>
    <g clip-path="url(#p8f2d2550b3)">
     <use style="fill:none;" x="431.629040179" xlink:href="#C0_0_49dde3f7d7" y="274.829799118"/>
    </g>
   </g>
   <g id="patch_3">
    <path d="M 49.000469 11.772656 
L 495.400469 11.772656 
" style="fill:none;"/>
   </g>
   <g id="patch_4">
    <path d="M 495.400469 318.672656 
L 495.400469 11.772656 
" style="fill:none;"/>
   </g>
   <g id="patch_5">
    <path d="M 49.000469 318.672656 
L 495.400469 318.672656 
" style="fill:none;"/>
   </g>
   <g id="patch_6">
    <path d="M 49.000469 318.672656 
L 49.000469 11.772656 
" style="fill:none;"/>
   </g>
  </g>
 </g>
 <defs>
  <clipPath id="p8f2d2550b3">
   <rect height="306.9" width="446.4" x="49.00046875" y="11.77265625"/>
  </clipPath>
 </defs>
</svg>
