<?xml version="1.0" encoding="utf-8" standalone="no"?>
<!DOCTYPE svg PUBLIC "-//W3C//DTD SVG 1.1//EN"
  "http://www.w3.org/Graphics/SVG/1.1/DTD/svg11.dtd">
<!-- Created with matplotlib (http://matplotlib.org/) -->
<svg height="361pt" version="1.1" viewBox="0 0 507 361" width="507pt" xmlns="http://www.w3.org/2000/svg" xmlns:xlink="http://www.w3.org/1999/xlink">
 <defs>
  <style type="text/css">
*{stroke-linecap:butt;stroke-linejoin:round;stroke-miterlimit:100000;}
  </style>
 </defs>
 <g id="figure_1">
  <g id="patch_1">
   <path d="M 0 361.31 
L 507.309844 361.31 
L 507.309844 0 
L 0 0 
z
" style="fill:#ffffff;"/>
  </g>
  <g id="axes_1">
   <g id="patch_2">
    <path d="M 45.559844 319 
L 491.959844 319 
L 491.959844 12.1 
L 45.559844 12.1 
z
" style="fill:#eaeaf2;"/>
   </g>
   <g id="matplotlib.axis_1">
    <g id="xtick_1">
     <g id="line2d_1">
      <path clip-path="url(#pf6dd594089)" d="M 45.559844 319 
L 45.559844 12.1 
" style="fill:none;stroke:#ffffff;stroke-linecap:round;"/>
     </g>
     <g id="line2d_2">
      <defs>
       <path d="M 0 0 
L 0 0 
" id="ma6f2860c02" style="stroke:#262626;"/>
      </defs>
      <g>
       <use style="fill:#262626;stroke:#262626;" x="45.55984375" xlink:href="#ma6f2860c02" y="319.0"/>
      </g>
     </g>
     <g id="line2d_3">
      <g>
       <use style="fill:#262626;stroke:#262626;" x="45.55984375" xlink:href="#ma6f2860c02" y="12.1"/>
      </g>
     </g>
     <g id="text_1">
      <!-- $\mathdefault{10^{0}}$ -->
      <defs>
       <path d="M 4.15625 35.296875 
Q 4.15625 48 6.765625 55.734375 
Q 9.375 63.484375 14.515625 67.671875 
Q 19.671875 71.875 27.484375 71.875 
Q 33.25 71.875 37.59375 69.546875 
Q 41.9375 67.234375 44.765625 62.859375 
Q 47.609375 58.5 49.21875 52.21875 
Q 50.828125 45.953125 50.828125 35.296875 
Q 50.828125 22.703125 48.234375 14.96875 
Q 45.65625 7.234375 40.5 3 
Q 35.359375 -1.21875 27.484375 -1.21875 
Q 17.140625 -1.21875 11.234375 6.203125 
Q 4.15625 15.140625 4.15625 35.296875 
M 13.1875 35.296875 
Q 13.1875 17.671875 17.3125 11.828125 
Q 21.4375 6 27.484375 6 
Q 33.546875 6 37.671875 11.859375 
Q 41.796875 17.71875 41.796875 35.296875 
Q 41.796875 52.984375 37.671875 58.78125 
Q 33.546875 64.59375 27.390625 64.59375 
Q 21.34375 64.59375 17.71875 59.46875 
Q 13.1875 52.9375 13.1875 35.296875 
" id="ArialMT-30"/>
       <path d="M 37.25 0 
L 28.46875 0 
L 28.46875 56 
Q 25.296875 52.984375 20.140625 49.953125 
Q 14.984375 46.921875 10.890625 45.40625 
L 10.890625 53.90625 
Q 18.265625 57.375 23.78125 62.296875 
Q 29.296875 67.234375 31.59375 71.875 
L 37.25 71.875 
z
" id="ArialMT-31"/>
      </defs>
      <g style="fill:#262626;" transform="translate(37.40984375 333.8125)scale(0.1 -0.1)">
       <use transform="translate(0.0 0.884375)" xlink:href="#ArialMT-31"/>
       <use transform="translate(55.615234375 0.884375)" xlink:href="#ArialMT-30"/>
       <use transform="translate(116.4575 45.6875)scale(0.7)" xlink:href="#ArialMT-30"/>
      </g>
     </g>
    </g>
    <g id="xtick_2">
     <g id="line2d_4">
      <path clip-path="url(#pf6dd594089)" d="M 194.359844 319 
L 194.359844 12.1 
" style="fill:none;stroke:#ffffff;stroke-linecap:round;"/>
     </g>
     <g id="line2d_5">
      <g>
       <use style="fill:#262626;stroke:#262626;" x="194.35984375" xlink:href="#ma6f2860c02" y="319.0"/>
      </g>
     </g>
     <g id="line2d_6">
      <g>
       <use style="fill:#262626;stroke:#262626;" x="194.35984375" xlink:href="#ma6f2860c02" y="12.1"/>
      </g>
     </g>
     <g id="text_2">
      <!-- $\mathdefault{10^{1}}$ -->
      <g style="fill:#262626;" transform="translate(186.20984375 333.8125)scale(0.1 -0.1)">
       <use transform="translate(0.0 0.884375)" xlink:href="#ArialMT-31"/>
       <use transform="translate(55.615234375 0.884375)" xlink:href="#ArialMT-30"/>
       <use transform="translate(116.4575 45.6875)scale(0.7)" xlink:href="#ArialMT-31"/>
      </g>
     </g>
    </g>
    <g id="xtick_3">
     <g id="line2d_7">
      <path clip-path="url(#pf6dd594089)" d="M 343.159844 319 
L 343.159844 12.1 
" style="fill:none;stroke:#ffffff;stroke-linecap:round;"/>
     </g>
     <g id="line2d_8">
      <g>
       <use style="fill:#262626;stroke:#262626;" x="343.15984375" xlink:href="#ma6f2860c02" y="319.0"/>
      </g>
     </g>
     <g id="line2d_9">
      <g>
       <use style="fill:#262626;stroke:#262626;" x="343.15984375" xlink:href="#ma6f2860c02" y="12.1"/>
      </g>
     </g>
     <g id="text_3">
      <!-- $\mathdefault{10^{2}}$ -->
      <defs>
       <path d="M 50.34375 8.453125 
L 50.34375 0 
L 3.03125 0 
Q 2.9375 3.171875 4.046875 6.109375 
Q 5.859375 10.9375 9.828125 15.625 
Q 13.8125 20.3125 21.34375 26.46875 
Q 33.015625 36.03125 37.109375 41.625 
Q 41.21875 47.21875 41.21875 52.203125 
Q 41.21875 57.421875 37.46875 61 
Q 33.734375 64.59375 27.734375 64.59375 
Q 21.390625 64.59375 17.578125 60.78125 
Q 13.765625 56.984375 13.71875 50.25 
L 4.6875 51.171875 
Q 5.609375 61.28125 11.65625 66.578125 
Q 17.71875 71.875 27.9375 71.875 
Q 38.234375 71.875 44.234375 66.15625 
Q 50.25 60.453125 50.25 52 
Q 50.25 47.703125 48.484375 43.546875 
Q 46.734375 39.40625 42.65625 34.8125 
Q 38.578125 30.21875 29.109375 22.21875 
Q 21.1875 15.578125 18.9375 13.203125 
Q 16.703125 10.84375 15.234375 8.453125 
z
" id="ArialMT-32"/>
      </defs>
      <g style="fill:#262626;" transform="translate(335.00984375 333.8125)scale(0.1 -0.1)">
       <use transform="translate(0.0 0.884375)" xlink:href="#ArialMT-31"/>
       <use transform="translate(55.615234375 0.884375)" xlink:href="#ArialMT-30"/>
       <use transform="translate(116.4575 45.6875)scale(0.7)" xlink:href="#ArialMT-32"/>
      </g>
     </g>
    </g>
    <g id="xtick_4">
     <g id="line2d_10">
      <path clip-path="url(#pf6dd594089)" d="M 491.959844 319 
L 491.959844 12.1 
" style="fill:none;stroke:#ffffff;stroke-linecap:round;"/>
     </g>
     <g id="line2d_11">
      <g>
       <use style="fill:#262626;stroke:#262626;" x="491.95984375" xlink:href="#ma6f2860c02" y="319.0"/>
      </g>
     </g>
     <g id="line2d_12">
      <g>
       <use style="fill:#262626;stroke:#262626;" x="491.95984375" xlink:href="#ma6f2860c02" y="12.1"/>
      </g>
     </g>
     <g id="text_4">
      <!-- $\mathdefault{10^{3}}$ -->
      <defs>
       <path d="M 4.203125 18.890625 
L 12.984375 20.0625 
Q 14.5 12.59375 18.140625 9.296875 
Q 21.78125 6 27 6 
Q 33.203125 6 37.46875 10.296875 
Q 41.75 14.59375 41.75 20.953125 
Q 41.75 27 37.796875 30.921875 
Q 33.84375 34.859375 27.734375 34.859375 
Q 25.25 34.859375 21.53125 33.890625 
L 22.515625 41.609375 
Q 23.390625 41.5 23.921875 41.5 
Q 29.546875 41.5 34.03125 44.421875 
Q 38.53125 47.359375 38.53125 53.46875 
Q 38.53125 58.296875 35.25 61.46875 
Q 31.984375 64.65625 26.8125 64.65625 
Q 21.6875 64.65625 18.265625 61.421875 
Q 14.84375 58.203125 13.875 51.765625 
L 5.078125 53.328125 
Q 6.6875 62.15625 12.390625 67.015625 
Q 18.109375 71.875 26.609375 71.875 
Q 32.46875 71.875 37.390625 69.359375 
Q 42.328125 66.84375 44.9375 62.5 
Q 47.5625 58.15625 47.5625 53.265625 
Q 47.5625 48.640625 45.0625 44.828125 
Q 42.578125 41.015625 37.703125 38.765625 
Q 44.046875 37.3125 47.5625 32.6875 
Q 51.078125 28.078125 51.078125 21.140625 
Q 51.078125 11.765625 44.234375 5.25 
Q 37.40625 -1.265625 26.953125 -1.265625 
Q 17.53125 -1.265625 11.296875 4.34375 
Q 5.078125 9.96875 4.203125 18.890625 
" id="ArialMT-33"/>
      </defs>
      <g style="fill:#262626;" transform="translate(483.80984375 333.8125)scale(0.1 -0.1)">
       <use transform="translate(0.0 0.884375)" xlink:href="#ArialMT-31"/>
       <use transform="translate(55.615234375 0.884375)" xlink:href="#ArialMT-30"/>
       <use transform="translate(116.4575 45.6875)scale(0.7)" xlink:href="#ArialMT-33"/>
      </g>
     </g>
    </g>
    <g id="xtick_5">
     <g id="line2d_13">
      <defs>
       <path d="M 0 0 
L 0 0 
" id="m6a9c67e7f9" style="stroke:#262626;stroke-width:0.5;"/>
      </defs>
      <g>
       <use style="fill:#262626;stroke:#262626;stroke-width:0.5;" x="90.3531071048" xlink:href="#m6a9c67e7f9" y="319.0"/>
      </g>
     </g>
     <g id="line2d_14">
      <g>
       <use style="fill:#262626;stroke:#262626;stroke-width:0.5;" x="90.3531071048" xlink:href="#m6a9c67e7f9" y="12.1"/>
      </g>
     </g>
    </g>
    <g id="xtick_6">
     <g id="line2d_15">
      <g>
       <use style="fill:#262626;stroke:#262626;stroke-width:0.5;" x="116.555486452" xlink:href="#m6a9c67e7f9" y="319.0"/>
      </g>
     </g>
     <g id="line2d_16">
      <g>
       <use style="fill:#262626;stroke:#262626;stroke-width:0.5;" x="116.555486452" xlink:href="#m6a9c67e7f9" y="12.1"/>
      </g>
     </g>
    </g>
    <g id="xtick_7">
     <g id="line2d_17">
      <g>
       <use style="fill:#262626;stroke:#262626;stroke-width:0.5;" x="135.14637046" xlink:href="#m6a9c67e7f9" y="319.0"/>
      </g>
     </g>
     <g id="line2d_18">
      <g>
       <use style="fill:#262626;stroke:#262626;stroke-width:0.5;" x="135.14637046" xlink:href="#m6a9c67e7f9" y="12.1"/>
      </g>
     </g>
    </g>
    <g id="xtick_8">
     <g id="line2d_19">
      <g>
       <use style="fill:#262626;stroke:#262626;stroke-width:0.5;" x="149.566580395" xlink:href="#m6a9c67e7f9" y="319.0"/>
      </g>
     </g>
     <g id="line2d_20">
      <g>
       <use style="fill:#262626;stroke:#262626;stroke-width:0.5;" x="149.566580395" xlink:href="#m6a9c67e7f9" y="12.1"/>
      </g>
     </g>
    </g>
    <g id="xtick_9">
     <g id="line2d_21">
      <g>
       <use style="fill:#262626;stroke:#262626;stroke-width:0.5;" x="161.348749807" xlink:href="#m6a9c67e7f9" y="319.0"/>
      </g>
     </g>
     <g id="line2d_22">
      <g>
       <use style="fill:#262626;stroke:#262626;stroke-width:0.5;" x="161.348749807" xlink:href="#m6a9c67e7f9" y="12.1"/>
      </g>
     </g>
    </g>
    <g id="xtick_10">
     <g id="line2d_23">
      <g>
       <use style="fill:#262626;stroke:#262626;stroke-width:0.5;" x="171.310432104" xlink:href="#m6a9c67e7f9" y="319.0"/>
      </g>
     </g>
     <g id="line2d_24">
      <g>
       <use style="fill:#262626;stroke:#262626;stroke-width:0.5;" x="171.310432104" xlink:href="#m6a9c67e7f9" y="12.1"/>
      </g>
     </g>
    </g>
    <g id="xtick_11">
     <g id="line2d_25">
      <g>
       <use style="fill:#262626;stroke:#262626;stroke-width:0.5;" x="179.939633814" xlink:href="#m6a9c67e7f9" y="319.0"/>
      </g>
     </g>
     <g id="line2d_26">
      <g>
       <use style="fill:#262626;stroke:#262626;stroke-width:0.5;" x="179.939633814" xlink:href="#m6a9c67e7f9" y="12.1"/>
      </g>
     </g>
    </g>
    <g id="xtick_12">
     <g id="line2d_27">
      <g>
       <use style="fill:#262626;stroke:#262626;stroke-width:0.5;" x="187.551129155" xlink:href="#m6a9c67e7f9" y="319.0"/>
      </g>
     </g>
     <g id="line2d_28">
      <g>
       <use style="fill:#262626;stroke:#262626;stroke-width:0.5;" x="187.551129155" xlink:href="#m6a9c67e7f9" y="12.1"/>
      </g>
     </g>
    </g>
    <g id="xtick_13">
     <g id="line2d_29">
      <g>
       <use style="fill:#262626;stroke:#262626;stroke-width:0.5;" x="239.153107105" xlink:href="#m6a9c67e7f9" y="319.0"/>
      </g>
     </g>
     <g id="line2d_30">
      <g>
       <use style="fill:#262626;stroke:#262626;stroke-width:0.5;" x="239.153107105" xlink:href="#m6a9c67e7f9" y="12.1"/>
      </g>
     </g>
    </g>
    <g id="xtick_14">
     <g id="line2d_31">
      <g>
       <use style="fill:#262626;stroke:#262626;stroke-width:0.5;" x="265.355486452" xlink:href="#m6a9c67e7f9" y="319.0"/>
      </g>
     </g>
     <g id="line2d_32">
      <g>
       <use style="fill:#262626;stroke:#262626;stroke-width:0.5;" x="265.355486452" xlink:href="#m6a9c67e7f9" y="12.1"/>
      </g>
     </g>
    </g>
    <g id="xtick_15">
     <g id="line2d_33">
      <g>
       <use style="fill:#262626;stroke:#262626;stroke-width:0.5;" x="283.94637046" xlink:href="#m6a9c67e7f9" y="319.0"/>
      </g>
     </g>
     <g id="line2d_34">
      <g>
       <use style="fill:#262626;stroke:#262626;stroke-width:0.5;" x="283.94637046" xlink:href="#m6a9c67e7f9" y="12.1"/>
      </g>
     </g>
    </g>
    <g id="xtick_16">
     <g id="line2d_35">
      <g>
       <use style="fill:#262626;stroke:#262626;stroke-width:0.5;" x="298.366580395" xlink:href="#m6a9c67e7f9" y="319.0"/>
      </g>
     </g>
     <g id="line2d_36">
      <g>
       <use style="fill:#262626;stroke:#262626;stroke-width:0.5;" x="298.366580395" xlink:href="#m6a9c67e7f9" y="12.1"/>
      </g>
     </g>
    </g>
    <g id="xtick_17">
     <g id="line2d_37">
      <g>
       <use style="fill:#262626;stroke:#262626;stroke-width:0.5;" x="310.148749807" xlink:href="#m6a9c67e7f9" y="319.0"/>
      </g>
     </g>
     <g id="line2d_38">
      <g>
       <use style="fill:#262626;stroke:#262626;stroke-width:0.5;" x="310.148749807" xlink:href="#m6a9c67e7f9" y="12.1"/>
      </g>
     </g>
    </g>
    <g id="xtick_18">
     <g id="line2d_39">
      <g>
       <use style="fill:#262626;stroke:#262626;stroke-width:0.5;" x="320.110432104" xlink:href="#m6a9c67e7f9" y="319.0"/>
      </g>
     </g>
     <g id="line2d_40">
      <g>
       <use style="fill:#262626;stroke:#262626;stroke-width:0.5;" x="320.110432104" xlink:href="#m6a9c67e7f9" y="12.1"/>
      </g>
     </g>
    </g>
    <g id="xtick_19">
     <g id="line2d_41">
      <g>
       <use style="fill:#262626;stroke:#262626;stroke-width:0.5;" x="328.739633814" xlink:href="#m6a9c67e7f9" y="319.0"/>
      </g>
     </g>
     <g id="line2d_42">
      <g>
       <use style="fill:#262626;stroke:#262626;stroke-width:0.5;" x="328.739633814" xlink:href="#m6a9c67e7f9" y="12.1"/>
      </g>
     </g>
    </g>
    <g id="xtick_20">
     <g id="line2d_43">
      <g>
       <use style="fill:#262626;stroke:#262626;stroke-width:0.5;" x="336.351129155" xlink:href="#m6a9c67e7f9" y="319.0"/>
      </g>
     </g>
     <g id="line2d_44">
      <g>
       <use style="fill:#262626;stroke:#262626;stroke-width:0.5;" x="336.351129155" xlink:href="#m6a9c67e7f9" y="12.1"/>
      </g>
     </g>
    </g>
    <g id="xtick_21">
     <g id="line2d_45">
      <g>
       <use style="fill:#262626;stroke:#262626;stroke-width:0.5;" x="387.953107105" xlink:href="#m6a9c67e7f9" y="319.0"/>
      </g>
     </g>
     <g id="line2d_46">
      <g>
       <use style="fill:#262626;stroke:#262626;stroke-width:0.5;" x="387.953107105" xlink:href="#m6a9c67e7f9" y="12.1"/>
      </g>
     </g>
    </g>
    <g id="xtick_22">
     <g id="line2d_47">
      <g>
       <use style="fill:#262626;stroke:#262626;stroke-width:0.5;" x="414.155486452" xlink:href="#m6a9c67e7f9" y="319.0"/>
      </g>
     </g>
     <g id="line2d_48">
      <g>
       <use style="fill:#262626;stroke:#262626;stroke-width:0.5;" x="414.155486452" xlink:href="#m6a9c67e7f9" y="12.1"/>
      </g>
     </g>
    </g>
    <g id="xtick_23">
     <g id="line2d_49">
      <g>
       <use style="fill:#262626;stroke:#262626;stroke-width:0.5;" x="432.74637046" xlink:href="#m6a9c67e7f9" y="319.0"/>
      </g>
     </g>
     <g id="line2d_50">
      <g>
       <use style="fill:#262626;stroke:#262626;stroke-width:0.5;" x="432.74637046" xlink:href="#m6a9c67e7f9" y="12.1"/>
      </g>
     </g>
    </g>
    <g id="xtick_24">
     <g id="line2d_51">
      <g>
       <use style="fill:#262626;stroke:#262626;stroke-width:0.5;" x="447.166580395" xlink:href="#m6a9c67e7f9" y="319.0"/>
      </g>
     </g>
     <g id="line2d_52">
      <g>
       <use style="fill:#262626;stroke:#262626;stroke-width:0.5;" x="447.166580395" xlink:href="#m6a9c67e7f9" y="12.1"/>
      </g>
     </g>
    </g>
    <g id="xtick_25">
     <g id="line2d_53">
      <g>
       <use style="fill:#262626;stroke:#262626;stroke-width:0.5;" x="458.948749807" xlink:href="#m6a9c67e7f9" y="319.0"/>
      </g>
     </g>
     <g id="line2d_54">
      <g>
       <use style="fill:#262626;stroke:#262626;stroke-width:0.5;" x="458.948749807" xlink:href="#m6a9c67e7f9" y="12.1"/>
      </g>
     </g>
    </g>
    <g id="xtick_26">
     <g id="line2d_55">
      <g>
       <use style="fill:#262626;stroke:#262626;stroke-width:0.5;" x="468.910432104" xlink:href="#m6a9c67e7f9" y="319.0"/>
      </g>
     </g>
     <g id="line2d_56">
      <g>
       <use style="fill:#262626;stroke:#262626;stroke-width:0.5;" x="468.910432104" xlink:href="#m6a9c67e7f9" y="12.1"/>
      </g>
     </g>
    </g>
    <g id="xtick_27">
     <g id="line2d_57">
      <g>
       <use style="fill:#262626;stroke:#262626;stroke-width:0.5;" x="477.539633814" xlink:href="#m6a9c67e7f9" y="319.0"/>
      </g>
     </g>
     <g id="line2d_58">
      <g>
       <use style="fill:#262626;stroke:#262626;stroke-width:0.5;" x="477.539633814" xlink:href="#m6a9c67e7f9" y="12.1"/>
      </g>
     </g>
    </g>
    <g id="xtick_28">
     <g id="line2d_59">
      <g>
       <use style="fill:#262626;stroke:#262626;stroke-width:0.5;" x="485.151129155" xlink:href="#m6a9c67e7f9" y="319.0"/>
      </g>
     </g>
     <g id="line2d_60">
      <g>
       <use style="fill:#262626;stroke:#262626;stroke-width:0.5;" x="485.151129155" xlink:href="#m6a9c67e7f9" y="12.1"/>
      </g>
     </g>
    </g>
    <g id="text_5">
     <!-- $\langle k \rangle$ -->
     <defs>
      <path d="M 5.328125 1.8125 
Q 5.328125 2.390625 5.421875 2.6875 
L 19.921875 60.5 
Q 20.3125 62.203125 20.40625 63.1875 
Q 20.40625 64.796875 13.921875 64.796875 
Q 12.890625 64.796875 12.890625 66.109375 
Q 12.9375 66.359375 13.109375 66.984375 
Q 13.28125 67.625 13.546875 67.96875 
Q 13.8125 68.3125 14.3125 68.3125 
L 27.78125 69.390625 
L 28.078125 69.390625 
Q 28.078125 69.28125 28.421875 69.109375 
Q 28.765625 68.953125 28.8125 68.890625 
Q 29 68.40625 29 68.109375 
L 18.5 26.3125 
Q 22.125 27.828125 27.609375 33.515625 
Q 33.109375 39.203125 36.203125 41.6875 
Q 39.3125 44.1875 44 44.1875 
Q 46.78125 44.1875 48.734375 42.28125 
Q 50.6875 40.375 50.6875 37.59375 
Q 50.6875 35.84375 49.953125 34.34375 
Q 49.21875 32.859375 47.890625 31.921875 
Q 46.578125 31 44.828125 31 
Q 43.21875 31 42.109375 32 
Q 41.015625 33.015625 41.015625 34.625 
Q 41.015625 37.015625 42.703125 38.640625 
Q 44.390625 40.28125 46.78125 40.28125 
Q 45.796875 41.609375 43.796875 41.609375 
Q 40.828125 41.609375 38.0625 39.890625 
Q 35.296875 38.1875 32.09375 34.984375 
Q 28.90625 31.78125 26.265625 29.125 
Q 23.640625 26.46875 21.390625 25.09375 
Q 27.296875 24.421875 31.640625 22 
Q 35.984375 19.578125 35.984375 14.59375 
Q 35.984375 13.578125 35.59375 12.015625 
Q 34.71875 8.25 34.71875 6 
Q 34.71875 1.515625 37.796875 1.515625 
Q 41.40625 1.515625 43.28125 5.46875 
Q 45.171875 9.421875 46.390625 14.703125 
Q 46.578125 15.28125 47.21875 15.28125 
L 48.390625 15.28125 
Q 48.78125 15.28125 49.046875 15.03125 
Q 49.3125 14.796875 49.3125 14.40625 
Q 49.3125 14.3125 49.21875 14.109375 
Q 45.453125 -1.125 37.59375 -1.125 
Q 34.765625 -1.125 32.59375 0.1875 
Q 30.421875 1.515625 29.25 3.78125 
Q 28.078125 6.0625 28.078125 8.890625 
Q 28.078125 10.5 28.515625 12.203125 
Q 28.8125 13.375 28.8125 14.40625 
Q 28.8125 18.265625 25.390625 20.265625 
Q 21.96875 22.265625 17.578125 22.703125 
L 12.5 2.296875 
Q 12.109375 0.78125 10.984375 -0.171875 
Q 9.859375 -1.125 8.40625 -1.125 
Q 7.125 -1.125 6.21875 -0.265625 
Q 5.328125 0.59375 5.328125 1.8125 
" id="Cmmi10-6b"/>
      <path d="M 7.8125 -114.015625 
Q 7.8125 -113.484375 8.015625 -113.28125 
L 33.109375 -56 
L 8.015625 1.3125 
Q 7.8125 1.515625 7.8125 2 
Q 7.8125 2.734375 8.390625 3.359375 
Q 8.984375 4 9.8125 4 
Q 10.984375 4 11.71875 2.78125 
L 37.203125 -55.328125 
Q 37.3125 -55.515625 37.3125 -56 
Q 37.3125 -56.5 37.203125 -56.78125 
L 11.71875 -114.796875 
Q 10.9375 -116.015625 9.8125 -116.015625 
Q 8.984375 -116.015625 8.390625 -115.375 
Q 7.8125 -114.75 7.8125 -114.015625 
" id="Cmex10-ae"/>
      <path d="M 35.5 -114.796875 
L 10.015625 -56.78125 
Q 9.8125 -56.5 9.8125 -56 
Q 9.8125 -55.515625 10.015625 -55.328125 
L 35.5 2.78125 
Q 35.984375 4 37.3125 4 
Q 38.03125 4 38.671875 3.359375 
Q 39.3125 2.734375 39.3125 2 
Q 39.3125 1.515625 39.203125 1.3125 
L 14.015625 -56 
L 39.203125 -113.28125 
Q 39.3125 -113.484375 39.3125 -114.015625 
Q 39.3125 -114.75 38.671875 -115.375 
Q 38.03125 -116.015625 37.3125 -116.015625 
Q 36.03125 -116.015625 35.5 -114.796875 
" id="Cmex10-ad"/>
     </defs>
     <g style="fill:#262626;" transform="translate(260.67484375 351.58)scale(0.11 -0.11)">
      <use transform="translate(0.0 94.0)" xlink:href="#Cmex10-ad"/>
      <use transform="translate(47.216796875 0.658854166667)" xlink:href="#Cmmi10-6b"/>
      <use transform="translate(99.21875 94.0)" xlink:href="#Cmex10-ae"/>
     </g>
    </g>
   </g>
   <g id="matplotlib.axis_2">
    <g id="ytick_1">
     <g id="line2d_61">
      <path clip-path="url(#pf6dd594089)" d="M 45.559844 319 
L 491.959844 319 
" style="fill:none;stroke:#ffffff;stroke-linecap:round;"/>
     </g>
     <g id="line2d_62">
      <g>
       <use style="fill:#262626;stroke:#262626;" x="45.55984375" xlink:href="#ma6f2860c02" y="319.0"/>
      </g>
     </g>
     <g id="line2d_63">
      <g>
       <use style="fill:#262626;stroke:#262626;" x="491.95984375" xlink:href="#ma6f2860c02" y="319.0"/>
      </g>
     </g>
     <g id="text_6">
      <!-- $\mathdefault{10^{0}}$ -->
      <g style="fill:#262626;" transform="translate(22.25984375 321.9125)scale(0.1 -0.1)">
       <use transform="translate(0.0 0.884375)" xlink:href="#ArialMT-31"/>
       <use transform="translate(55.615234375 0.884375)" xlink:href="#ArialMT-30"/>
       <use transform="translate(116.4575 45.6875)scale(0.7)" xlink:href="#ArialMT-30"/>
      </g>
     </g>
    </g>
    <g id="ytick_2">
     <g id="line2d_64">
      <path clip-path="url(#pf6dd594089)" d="M 45.559844 216.7 
L 491.959844 216.7 
" style="fill:none;stroke:#ffffff;stroke-linecap:round;"/>
     </g>
     <g id="line2d_65">
      <g>
       <use style="fill:#262626;stroke:#262626;" x="45.55984375" xlink:href="#ma6f2860c02" y="216.7"/>
      </g>
     </g>
     <g id="line2d_66">
      <g>
       <use style="fill:#262626;stroke:#262626;" x="491.95984375" xlink:href="#ma6f2860c02" y="216.7"/>
      </g>
     </g>
     <g id="text_7">
      <!-- $\mathdefault{10^{1}}$ -->
      <g style="fill:#262626;" transform="translate(22.25984375 219.6125)scale(0.1 -0.1)">
       <use transform="translate(0.0 0.884375)" xlink:href="#ArialMT-31"/>
       <use transform="translate(55.615234375 0.884375)" xlink:href="#ArialMT-30"/>
       <use transform="translate(116.4575 45.6875)scale(0.7)" xlink:href="#ArialMT-31"/>
      </g>
     </g>
    </g>
    <g id="ytick_3">
     <g id="line2d_67">
      <path clip-path="url(#pf6dd594089)" d="M 45.559844 114.4 
L 491.959844 114.4 
" style="fill:none;stroke:#ffffff;stroke-linecap:round;"/>
     </g>
     <g id="line2d_68">
      <g>
       <use style="fill:#262626;stroke:#262626;" x="45.55984375" xlink:href="#ma6f2860c02" y="114.4"/>
      </g>
     </g>
     <g id="line2d_69">
      <g>
       <use style="fill:#262626;stroke:#262626;" x="491.95984375" xlink:href="#ma6f2860c02" y="114.4"/>
      </g>
     </g>
     <g id="text_8">
      <!-- $\mathdefault{10^{2}}$ -->
      <g style="fill:#262626;" transform="translate(22.25984375 117.3125)scale(0.1 -0.1)">
       <use transform="translate(0.0 0.884375)" xlink:href="#ArialMT-31"/>
       <use transform="translate(55.615234375 0.884375)" xlink:href="#ArialMT-30"/>
       <use transform="translate(116.4575 45.6875)scale(0.7)" xlink:href="#ArialMT-32"/>
      </g>
     </g>
    </g>
    <g id="ytick_4">
     <g id="line2d_70">
      <path clip-path="url(#pf6dd594089)" d="M 45.559844 12.1 
L 491.959844 12.1 
" style="fill:none;stroke:#ffffff;stroke-linecap:round;"/>
     </g>
     <g id="line2d_71">
      <g>
       <use style="fill:#262626;stroke:#262626;" x="45.55984375" xlink:href="#ma6f2860c02" y="12.1"/>
      </g>
     </g>
     <g id="line2d_72">
      <g>
       <use style="fill:#262626;stroke:#262626;" x="491.95984375" xlink:href="#ma6f2860c02" y="12.1"/>
      </g>
     </g>
     <g id="text_9">
      <!-- $\mathdefault{10^{3}}$ -->
      <g style="fill:#262626;" transform="translate(22.25984375 15.0125)scale(0.1 -0.1)">
       <use transform="translate(0.0 0.884375)" xlink:href="#ArialMT-31"/>
       <use transform="translate(55.615234375 0.884375)" xlink:href="#ArialMT-30"/>
       <use transform="translate(116.4575 45.6875)scale(0.7)" xlink:href="#ArialMT-33"/>
      </g>
     </g>
    </g>
    <g id="ytick_5">
     <g id="line2d_73">
      <g>
       <use style="fill:#262626;stroke:#262626;stroke-width:0.5;" x="45.55984375" xlink:href="#m6a9c67e7f9" y="288.204631444"/>
      </g>
     </g>
     <g id="line2d_74">
      <g>
       <use style="fill:#262626;stroke:#262626;stroke-width:0.5;" x="491.95984375" xlink:href="#m6a9c67e7f9" y="288.204631444"/>
      </g>
     </g>
    </g>
    <g id="ytick_6">
     <g id="line2d_75">
      <g>
       <use style="fill:#262626;stroke:#262626;stroke-width:0.5;" x="45.55984375" xlink:href="#m6a9c67e7f9" y="270.190495642"/>
      </g>
     </g>
     <g id="line2d_76">
      <g>
       <use style="fill:#262626;stroke:#262626;stroke-width:0.5;" x="491.95984375" xlink:href="#m6a9c67e7f9" y="270.190495642"/>
      </g>
     </g>
    </g>
    <g id="ytick_7">
     <g id="line2d_77">
      <g>
       <use style="fill:#262626;stroke:#262626;stroke-width:0.5;" x="45.55984375" xlink:href="#m6a9c67e7f9" y="257.409262887"/>
      </g>
     </g>
     <g id="line2d_78">
      <g>
       <use style="fill:#262626;stroke:#262626;stroke-width:0.5;" x="491.95984375" xlink:href="#m6a9c67e7f9" y="257.409262887"/>
      </g>
     </g>
    </g>
    <g id="ytick_8">
     <g id="line2d_79">
      <g>
       <use style="fill:#262626;stroke:#262626;stroke-width:0.5;" x="45.55984375" xlink:href="#m6a9c67e7f9" y="247.495368556"/>
      </g>
     </g>
     <g id="line2d_80">
      <g>
       <use style="fill:#262626;stroke:#262626;stroke-width:0.5;" x="491.95984375" xlink:href="#m6a9c67e7f9" y="247.495368556"/>
      </g>
     </g>
    </g>
    <g id="ytick_9">
     <g id="line2d_81">
      <g>
       <use style="fill:#262626;stroke:#262626;stroke-width:0.5;" x="45.55984375" xlink:href="#m6a9c67e7f9" y="239.395127086"/>
      </g>
     </g>
     <g id="line2d_82">
      <g>
       <use style="fill:#262626;stroke:#262626;stroke-width:0.5;" x="491.95984375" xlink:href="#m6a9c67e7f9" y="239.395127086"/>
      </g>
     </g>
    </g>
    <g id="ytick_10">
     <g id="line2d_83">
      <g>
       <use style="fill:#262626;stroke:#262626;stroke-width:0.5;" x="45.55984375" xlink:href="#m6a9c67e7f9" y="232.546470507"/>
      </g>
     </g>
     <g id="line2d_84">
      <g>
       <use style="fill:#262626;stroke:#262626;stroke-width:0.5;" x="491.95984375" xlink:href="#m6a9c67e7f9" y="232.546470507"/>
      </g>
     </g>
    </g>
    <g id="ytick_11">
     <g id="line2d_85">
      <g>
       <use style="fill:#262626;stroke:#262626;stroke-width:0.5;" x="45.55984375" xlink:href="#m6a9c67e7f9" y="226.613894331"/>
      </g>
     </g>
     <g id="line2d_86">
      <g>
       <use style="fill:#262626;stroke:#262626;stroke-width:0.5;" x="491.95984375" xlink:href="#m6a9c67e7f9" y="226.613894331"/>
      </g>
     </g>
    </g>
    <g id="ytick_12">
     <g id="line2d_87">
      <g>
       <use style="fill:#262626;stroke:#262626;stroke-width:0.5;" x="45.55984375" xlink:href="#m6a9c67e7f9" y="221.380991284"/>
      </g>
     </g>
     <g id="line2d_88">
      <g>
       <use style="fill:#262626;stroke:#262626;stroke-width:0.5;" x="491.95984375" xlink:href="#m6a9c67e7f9" y="221.380991284"/>
      </g>
     </g>
    </g>
    <g id="ytick_13">
     <g id="line2d_89">
      <g>
       <use style="fill:#262626;stroke:#262626;stroke-width:0.5;" x="45.55984375" xlink:href="#m6a9c67e7f9" y="185.904631444"/>
      </g>
     </g>
     <g id="line2d_90">
      <g>
       <use style="fill:#262626;stroke:#262626;stroke-width:0.5;" x="491.95984375" xlink:href="#m6a9c67e7f9" y="185.904631444"/>
      </g>
     </g>
    </g>
    <g id="ytick_14">
     <g id="line2d_91">
      <g>
       <use style="fill:#262626;stroke:#262626;stroke-width:0.5;" x="45.55984375" xlink:href="#m6a9c67e7f9" y="167.890495642"/>
      </g>
     </g>
     <g id="line2d_92">
      <g>
       <use style="fill:#262626;stroke:#262626;stroke-width:0.5;" x="491.95984375" xlink:href="#m6a9c67e7f9" y="167.890495642"/>
      </g>
     </g>
    </g>
    <g id="ytick_15">
     <g id="line2d_93">
      <g>
       <use style="fill:#262626;stroke:#262626;stroke-width:0.5;" x="45.55984375" xlink:href="#m6a9c67e7f9" y="155.109262887"/>
      </g>
     </g>
     <g id="line2d_94">
      <g>
       <use style="fill:#262626;stroke:#262626;stroke-width:0.5;" x="491.95984375" xlink:href="#m6a9c67e7f9" y="155.109262887"/>
      </g>
     </g>
    </g>
    <g id="ytick_16">
     <g id="line2d_95">
      <g>
       <use style="fill:#262626;stroke:#262626;stroke-width:0.5;" x="45.55984375" xlink:href="#m6a9c67e7f9" y="145.195368556"/>
      </g>
     </g>
     <g id="line2d_96">
      <g>
       <use style="fill:#262626;stroke:#262626;stroke-width:0.5;" x="491.95984375" xlink:href="#m6a9c67e7f9" y="145.195368556"/>
      </g>
     </g>
    </g>
    <g id="ytick_17">
     <g id="line2d_97">
      <g>
       <use style="fill:#262626;stroke:#262626;stroke-width:0.5;" x="45.55984375" xlink:href="#m6a9c67e7f9" y="137.095127086"/>
      </g>
     </g>
     <g id="line2d_98">
      <g>
       <use style="fill:#262626;stroke:#262626;stroke-width:0.5;" x="491.95984375" xlink:href="#m6a9c67e7f9" y="137.095127086"/>
      </g>
     </g>
    </g>
    <g id="ytick_18">
     <g id="line2d_99">
      <g>
       <use style="fill:#262626;stroke:#262626;stroke-width:0.5;" x="45.55984375" xlink:href="#m6a9c67e7f9" y="130.246470507"/>
      </g>
     </g>
     <g id="line2d_100">
      <g>
       <use style="fill:#262626;stroke:#262626;stroke-width:0.5;" x="491.95984375" xlink:href="#m6a9c67e7f9" y="130.246470507"/>
      </g>
     </g>
    </g>
    <g id="ytick_19">
     <g id="line2d_101">
      <g>
       <use style="fill:#262626;stroke:#262626;stroke-width:0.5;" x="45.55984375" xlink:href="#m6a9c67e7f9" y="124.313894331"/>
      </g>
     </g>
     <g id="line2d_102">
      <g>
       <use style="fill:#262626;stroke:#262626;stroke-width:0.5;" x="491.95984375" xlink:href="#m6a9c67e7f9" y="124.313894331"/>
      </g>
     </g>
    </g>
    <g id="ytick_20">
     <g id="line2d_103">
      <g>
       <use style="fill:#262626;stroke:#262626;stroke-width:0.5;" x="45.55984375" xlink:href="#m6a9c67e7f9" y="119.080991284"/>
      </g>
     </g>
     <g id="line2d_104">
      <g>
       <use style="fill:#262626;stroke:#262626;stroke-width:0.5;" x="491.95984375" xlink:href="#m6a9c67e7f9" y="119.080991284"/>
      </g>
     </g>
    </g>
    <g id="ytick_21">
     <g id="line2d_105">
      <g>
       <use style="fill:#262626;stroke:#262626;stroke-width:0.5;" x="45.55984375" xlink:href="#m6a9c67e7f9" y="83.6046314436"/>
      </g>
     </g>
     <g id="line2d_106">
      <g>
       <use style="fill:#262626;stroke:#262626;stroke-width:0.5;" x="491.95984375" xlink:href="#m6a9c67e7f9" y="83.6046314436"/>
      </g>
     </g>
    </g>
    <g id="ytick_22">
     <g id="line2d_107">
      <g>
       <use style="fill:#262626;stroke:#262626;stroke-width:0.5;" x="45.55984375" xlink:href="#m6a9c67e7f9" y="65.5904956422"/>
      </g>
     </g>
     <g id="line2d_108">
      <g>
       <use style="fill:#262626;stroke:#262626;stroke-width:0.5;" x="491.95984375" xlink:href="#m6a9c67e7f9" y="65.5904956422"/>
      </g>
     </g>
    </g>
    <g id="ytick_23">
     <g id="line2d_109">
      <g>
       <use style="fill:#262626;stroke:#262626;stroke-width:0.5;" x="45.55984375" xlink:href="#m6a9c67e7f9" y="52.8092628871"/>
      </g>
     </g>
     <g id="line2d_110">
      <g>
       <use style="fill:#262626;stroke:#262626;stroke-width:0.5;" x="491.95984375" xlink:href="#m6a9c67e7f9" y="52.8092628871"/>
      </g>
     </g>
    </g>
    <g id="ytick_24">
     <g id="line2d_111">
      <g>
       <use style="fill:#262626;stroke:#262626;stroke-width:0.5;" x="45.55984375" xlink:href="#m6a9c67e7f9" y="42.8953685564"/>
      </g>
     </g>
     <g id="line2d_112">
      <g>
       <use style="fill:#262626;stroke:#262626;stroke-width:0.5;" x="491.95984375" xlink:href="#m6a9c67e7f9" y="42.8953685564"/>
      </g>
     </g>
    </g>
    <g id="ytick_25">
     <g id="line2d_113">
      <g>
       <use style="fill:#262626;stroke:#262626;stroke-width:0.5;" x="45.55984375" xlink:href="#m6a9c67e7f9" y="34.7951270858"/>
      </g>
     </g>
     <g id="line2d_114">
      <g>
       <use style="fill:#262626;stroke:#262626;stroke-width:0.5;" x="491.95984375" xlink:href="#m6a9c67e7f9" y="34.7951270858"/>
      </g>
     </g>
    </g>
    <g id="ytick_26">
     <g id="line2d_115">
      <g>
       <use style="fill:#262626;stroke:#262626;stroke-width:0.5;" x="45.55984375" xlink:href="#m6a9c67e7f9" y="27.9464705065"/>
      </g>
     </g>
     <g id="line2d_116">
      <g>
       <use style="fill:#262626;stroke:#262626;stroke-width:0.5;" x="491.95984375" xlink:href="#m6a9c67e7f9" y="27.9464705065"/>
      </g>
     </g>
    </g>
    <g id="ytick_27">
     <g id="line2d_117">
      <g>
       <use style="fill:#262626;stroke:#262626;stroke-width:0.5;" x="45.55984375" xlink:href="#m6a9c67e7f9" y="22.0138943307"/>
      </g>
     </g>
     <g id="line2d_118">
      <g>
       <use style="fill:#262626;stroke:#262626;stroke-width:0.5;" x="491.95984375" xlink:href="#m6a9c67e7f9" y="22.0138943307"/>
      </g>
     </g>
    </g>
    <g id="ytick_28">
     <g id="line2d_119">
      <g>
       <use style="fill:#262626;stroke:#262626;stroke-width:0.5;" x="45.55984375" xlink:href="#m6a9c67e7f9" y="16.7809912844"/>
      </g>
     </g>
     <g id="line2d_120">
      <g>
       <use style="fill:#262626;stroke:#262626;stroke-width:0.5;" x="491.95984375" xlink:href="#m6a9c67e7f9" y="16.7809912844"/>
      </g>
     </g>
    </g>
    <g id="text_10">
     <!-- $N$ -->
     <defs>
      <path d="M 4.6875 0 
Q 3.71875 0 3.71875 1.3125 
Q 3.765625 1.5625 3.90625 2.171875 
Q 4.046875 2.78125 4.3125 3.140625 
Q 4.59375 3.515625 4.984375 3.515625 
Q 14.546875 3.515625 16.109375 9.625 
L 29.6875 64.3125 
Q 26.90625 64.796875 20.90625 64.796875 
Q 19.921875 64.796875 19.921875 66.109375 
Q 19.96875 66.359375 20.109375 66.96875 
Q 20.265625 67.578125 20.53125 67.9375 
Q 20.796875 68.3125 21.1875 68.3125 
L 38.484375 68.3125 
Q 39.203125 68.3125 39.40625 67.671875 
L 61.625 14.796875 
L 72.703125 59.078125 
Q 72.90625 60.15625 72.90625 60.59375 
Q 72.90625 64.796875 65.1875 64.796875 
Q 64.203125 64.796875 64.203125 66.109375 
Q 64.546875 67.390625 64.734375 67.84375 
Q 64.9375 68.3125 65.921875 68.3125 
L 87.3125 68.3125 
Q 88.28125 68.3125 88.28125 67 
Q 88.234375 66.75 88.078125 66.140625 
Q 87.9375 65.53125 87.671875 65.15625 
Q 87.40625 64.796875 87.015625 64.796875 
Q 77.4375 64.796875 75.875 58.6875 
L 61.53125 0.875 
Q 61.1875 0 60.5 0 
L 59.28125 0 
Q 58.59375 0 58.40625 0.6875 
L 32.90625 61.1875 
L 32.71875 61.8125 
Q 32.515625 62.015625 32.515625 62.109375 
L 19.28125 9.1875 
Q 19.1875 8.9375 19.140625 8.5625 
Q 19.09375 8.203125 19 7.71875 
Q 19 5.125 21.234375 4.3125 
Q 23.484375 3.515625 26.8125 3.515625 
Q 27.78125 3.515625 27.78125 2.203125 
Q 27.4375 0.828125 27.1875 0.40625 
Q 26.953125 0 26.125 0 
z
" id="Cmmi10-4e"/>
     </defs>
     <g style="fill:#262626;" transform="translate(15.07359375 170.005)rotate(-90.0)scale(0.11 -0.11)">
      <use transform="translate(0.0 0.6875)" xlink:href="#Cmmi10-4e"/>
     </g>
    </g>
   </g>
   <g id="line2d_121">
    <path clip-path="url(#pf6dd594089)" d="M 116.555486 225.581029 
L 129.523433 216.665566 
L 148.699144 203.482264 
L 151.575748 201.504599 
L 179.939634 182.004427 
L 190.935306 174.444902 
L 205.865255 164.180563 
L 222.430561 152.791914 
L 231.078362 146.846551 
L 253.278159 131.584191 
L 265.527585 123.162711 
L 280.24958 113.041339 
L 294.576523 103.191566 
L 310.644774 92.144643 
L 324.400532 82.68756 
L 339.681306 72.182027 
L 354.923067 61.703317 
L 369.345022 51.788223 
L 383.988351 41.720934 
L 398.923771 31.452833 
" style="fill:none;stroke:#ff0000;stroke-dasharray:6.000000,6.000000;stroke-dashoffset:0.0;stroke-width:1.75;"/>
   </g>
   <g id="patch_3">
    <path d="M 45.559844 12.1 
L 491.959844 12.1 
" style="fill:none;"/>
   </g>
   <g id="patch_4">
    <path d="M 491.959844 319 
L 491.959844 12.1 
" style="fill:none;"/>
   </g>
   <g id="patch_5">
    <path d="M 45.559844 319 
L 491.959844 319 
" style="fill:none;"/>
   </g>
   <g id="patch_6">
    <path d="M 45.559844 319 
L 45.559844 12.1 
" style="fill:none;"/>
   </g>
   <g id="PathCollection_1">
    <defs>
     <path d="M 0 2.236068 
C 0.593012 2.236068 1.161816 2.000462 1.581139 1.581139 
C 2.000462 1.161816 2.236068 0.593012 2.236068 0 
C 2.236068 -0.593012 2.000462 -1.161816 1.581139 -1.581139 
C 1.161816 -2.000462 0.593012 -2.236068 0 -2.236068 
C -0.593012 -2.236068 -1.161816 -2.000462 -1.581139 -1.581139 
C -2.000462 -1.161816 -2.236068 -0.593012 -2.236068 0 
C -2.236068 0.593012 -2.000462 1.161816 -1.581139 1.581139 
C -1.161816 2.000462 -0.593012 2.236068 0 2.236068 
z
" id="m099941f299" style="stroke:#000000;stroke-width:0.3;"/>
    </defs>
    <g clip-path="url(#pf6dd594089)">
     <use style="fill:#0000ff;stroke:#000000;stroke-width:0.3;" x="116.555486452" xlink:href="#m099941f299" y="216.7"/>
     <use style="fill:#0000ff;stroke:#000000;stroke-width:0.3;" x="129.523432599" xlink:href="#m099941f299" y="208.599758529"/>
     <use style="fill:#0000ff;stroke:#000000;stroke-width:0.3;" x="148.699144298" xlink:href="#m099941f299" y="198.685864199"/>
     <use style="fill:#0000ff;stroke:#000000;stroke-width:0.3;" x="151.575747991" xlink:href="#m099941f299" y="188.183506623"/>
     <use style="fill:#0000ff;stroke:#000000;stroke-width:0.3;" x="179.939633814" xlink:href="#m099941f299" y="175.990737113"/>
     <use style="fill:#0000ff;stroke:#000000;stroke-width:0.3;" x="190.935306473" xlink:href="#m099941f299" y="166.433698721"/>
     <use style="fill:#0000ff;stroke:#000000;stroke-width:0.3;" x="205.865254628" xlink:href="#m099941f299" y="156.234090701"/>
     <use style="fill:#0000ff;stroke:#000000;stroke-width:0.3;" x="222.430561395" xlink:href="#m099941f299" y="145.195368556"/>
     <use style="fill:#0000ff;stroke:#000000;stroke-width:0.3;" x="231.078362334" xlink:href="#m099941f299" y="134.927461791"/>
     <use style="fill:#0000ff;stroke:#000000;stroke-width:0.3;" x="253.278159374" xlink:href="#m099941f299" y="124.872748561"/>
     <use style="fill:#0000ff;stroke:#000000;stroke-width:0.3;" x="265.52758514" xlink:href="#m099941f299" y="114.4"/>
     <use style="fill:#0000ff;stroke:#000000;stroke-width:0.3;" x="280.249580047" xlink:href="#m099941f299" y="104.486105669"/>
     <use style="fill:#0000ff;stroke:#000000;stroke-width:0.3;" x="294.576522596" xlink:href="#m099941f299" y="94.0773800046"/>
     <use style="fill:#0000ff;stroke:#000000;stroke-width:0.3;" x="310.644774079" xlink:href="#m099941f299" y="83.8273302833"/>
     <use style="fill:#0000ff;stroke:#000000;stroke-width:0.3;" x="324.40053179" xlink:href="#m099941f299" y="73.5133782925"/>
     <use style="fill:#0000ff;stroke:#000000;stroke-width:0.3;" x="339.681306195" xlink:href="#m099941f299" y="63.2820114481"/>
     <use style="fill:#0000ff;stroke:#000000;stroke-width:0.3;" x="354.923067289" xlink:href="#m099941f299" y="53.0319617269"/>
     <use style="fill:#0000ff;stroke:#000000;stroke-width:0.3;" x="369.3450224" xlink:href="#m099941f299" y="42.8066006438"/>
     <use style="fill:#0000ff;stroke:#000000;stroke-width:0.3;" x="383.988351197" xlink:href="#m099941f299" y="32.6274617909"/>
     <use style="fill:#0000ff;stroke:#000000;stroke-width:0.3;" x="398.923771279" xlink:href="#m099941f299" y="22.3483626017"/>
    </g>
   </g>
  </g>
 </g>
 <defs>
  <clipPath id="pf6dd594089">
   <rect height="306.9" width="446.4" x="45.55984375" y="12.1"/>
  </clipPath>
 </defs>
</svg>
