<?xml version="1.0" encoding="utf-8" standalone="no"?>
<!DOCTYPE svg PUBLIC "-//W3C//DTD SVG 1.1//EN"
  "http://www.w3.org/Graphics/SVG/1.1/DTD/svg11.dtd">
<!-- Created with matplotlib (http://matplotlib.org/) -->
<svg height="357pt" version="1.1" viewBox="0 0 508 357" width="508pt" xmlns="http://www.w3.org/2000/svg" xmlns:xlink="http://www.w3.org/1999/xlink">
 <defs>
  <style type="text/css">
*{stroke-linecap:butt;stroke-linejoin:round;stroke-miterlimit:100000;}
  </style>
 </defs>
 <g id="figure_1">
  <g id="patch_1">
   <path d="M 0 357.077813 
L 508.633437 357.077813 
L 508.633437 0 
L 0 0 
z
" style="fill:#ffffff;"/>
  </g>
  <g id="axes_1">
   <g id="patch_2">
    <path d="M 55.033438 318.672656 
L 501.433437 318.672656 
L 501.433437 11.772656 
L 55.033438 11.772656 
z
" style="fill:#eaeaf2;"/>
   </g>
   <g id="matplotlib.axis_1">
    <g id="xtick_1">
     <g id="line2d_1">
      <path clip-path="url(#p3f03af70b9)" d="M 99.673438 318.672656 
L 99.673438 11.772656 
" style="fill:none;stroke:#ffffff;stroke-linecap:round;"/>
     </g>
     <g id="line2d_2">
      <defs>
       <path d="M 0 0 
L 0 0 
" id="m34139c8876" style="stroke:#262626;"/>
      </defs>
      <g>
       <use style="fill:#262626;stroke:#262626;" x="99.6734375" xlink:href="#m34139c8876" y="318.67265625"/>
      </g>
     </g>
     <g id="line2d_3">
      <g>
       <use style="fill:#262626;stroke:#262626;" x="99.6734375" xlink:href="#m34139c8876" y="11.77265625"/>
      </g>
     </g>
     <g id="text_1">
      <!-- 0 -->
      <defs>
       <path d="M 4.15625 35.296875 
Q 4.15625 48 6.765625 55.734375 
Q 9.375 63.484375 14.515625 67.671875 
Q 19.671875 71.875 27.484375 71.875 
Q 33.25 71.875 37.59375 69.546875 
Q 41.9375 67.234375 44.765625 62.859375 
Q 47.609375 58.5 49.21875 52.21875 
Q 50.828125 45.953125 50.828125 35.296875 
Q 50.828125 22.703125 48.234375 14.96875 
Q 45.65625 7.234375 40.5 3 
Q 35.359375 -1.21875 27.484375 -1.21875 
Q 17.140625 -1.21875 11.234375 6.203125 
Q 4.15625 15.140625 4.15625 35.296875 
M 13.1875 35.296875 
Q 13.1875 17.671875 17.3125 11.828125 
Q 21.4375 6 27.484375 6 
Q 33.546875 6 37.671875 11.859375 
Q 41.796875 17.71875 41.796875 35.296875 
Q 41.796875 52.984375 37.671875 58.78125 
Q 33.546875 64.59375 27.390625 64.59375 
Q 21.34375 64.59375 17.71875 59.46875 
Q 13.1875 52.9375 13.1875 35.296875 
" id="ArialMT-30"/>
      </defs>
      <g style="fill:#262626;" transform="translate(96.89296875 332.83046875)scale(0.1 -0.1)">
       <use xlink:href="#ArialMT-30"/>
      </g>
     </g>
    </g>
    <g id="xtick_2">
     <g id="line2d_4">
      <path clip-path="url(#p3f03af70b9)" d="M 188.953438 318.672656 
L 188.953438 11.772656 
" style="fill:none;stroke:#ffffff;stroke-linecap:round;"/>
     </g>
     <g id="line2d_5">
      <g>
       <use style="fill:#262626;stroke:#262626;" x="188.9534375" xlink:href="#m34139c8876" y="318.67265625"/>
      </g>
     </g>
     <g id="line2d_6">
      <g>
       <use style="fill:#262626;stroke:#262626;" x="188.9534375" xlink:href="#m34139c8876" y="11.77265625"/>
      </g>
     </g>
     <g id="text_2">
      <!-- 2000 -->
      <defs>
       <path d="M 50.34375 8.453125 
L 50.34375 0 
L 3.03125 0 
Q 2.9375 3.171875 4.046875 6.109375 
Q 5.859375 10.9375 9.828125 15.625 
Q 13.8125 20.3125 21.34375 26.46875 
Q 33.015625 36.03125 37.109375 41.625 
Q 41.21875 47.21875 41.21875 52.203125 
Q 41.21875 57.421875 37.46875 61 
Q 33.734375 64.59375 27.734375 64.59375 
Q 21.390625 64.59375 17.578125 60.78125 
Q 13.765625 56.984375 13.71875 50.25 
L 4.6875 51.171875 
Q 5.609375 61.28125 11.65625 66.578125 
Q 17.71875 71.875 27.9375 71.875 
Q 38.234375 71.875 44.234375 66.15625 
Q 50.25 60.453125 50.25 52 
Q 50.25 47.703125 48.484375 43.546875 
Q 46.734375 39.40625 42.65625 34.8125 
Q 38.578125 30.21875 29.109375 22.21875 
Q 21.1875 15.578125 18.9375 13.203125 
Q 16.703125 10.84375 15.234375 8.453125 
z
" id="ArialMT-32"/>
      </defs>
      <g style="fill:#262626;" transform="translate(177.8315625 332.83046875)scale(0.1 -0.1)">
       <use xlink:href="#ArialMT-32"/>
       <use x="55.615234375" xlink:href="#ArialMT-30"/>
       <use x="111.23046875" xlink:href="#ArialMT-30"/>
       <use x="166.845703125" xlink:href="#ArialMT-30"/>
      </g>
     </g>
    </g>
    <g id="xtick_3">
     <g id="line2d_7">
      <path clip-path="url(#p3f03af70b9)" d="M 278.233438 318.672656 
L 278.233438 11.772656 
" style="fill:none;stroke:#ffffff;stroke-linecap:round;"/>
     </g>
     <g id="line2d_8">
      <g>
       <use style="fill:#262626;stroke:#262626;" x="278.2334375" xlink:href="#m34139c8876" y="318.67265625"/>
      </g>
     </g>
     <g id="line2d_9">
      <g>
       <use style="fill:#262626;stroke:#262626;" x="278.2334375" xlink:href="#m34139c8876" y="11.77265625"/>
      </g>
     </g>
     <g id="text_3">
      <!-- 4000 -->
      <defs>
       <path d="M 32.328125 0 
L 32.328125 17.140625 
L 1.265625 17.140625 
L 1.265625 25.203125 
L 33.9375 71.578125 
L 41.109375 71.578125 
L 41.109375 25.203125 
L 50.78125 25.203125 
L 50.78125 17.140625 
L 41.109375 17.140625 
L 41.109375 0 
z
M 32.328125 25.203125 
L 32.328125 57.46875 
L 9.90625 25.203125 
z
" id="ArialMT-34"/>
      </defs>
      <g style="fill:#262626;" transform="translate(267.1115625 332.83046875)scale(0.1 -0.1)">
       <use xlink:href="#ArialMT-34"/>
       <use x="55.615234375" xlink:href="#ArialMT-30"/>
       <use x="111.23046875" xlink:href="#ArialMT-30"/>
       <use x="166.845703125" xlink:href="#ArialMT-30"/>
      </g>
     </g>
    </g>
    <g id="xtick_4">
     <g id="line2d_10">
      <path clip-path="url(#p3f03af70b9)" d="M 367.513438 318.672656 
L 367.513438 11.772656 
" style="fill:none;stroke:#ffffff;stroke-linecap:round;"/>
     </g>
     <g id="line2d_11">
      <g>
       <use style="fill:#262626;stroke:#262626;" x="367.5134375" xlink:href="#m34139c8876" y="318.67265625"/>
      </g>
     </g>
     <g id="line2d_12">
      <g>
       <use style="fill:#262626;stroke:#262626;" x="367.5134375" xlink:href="#m34139c8876" y="11.77265625"/>
      </g>
     </g>
     <g id="text_4">
      <!-- 6000 -->
      <defs>
       <path d="M 49.75 54.046875 
L 41.015625 53.375 
Q 39.84375 58.546875 37.703125 60.890625 
Q 34.125 64.65625 28.90625 64.65625 
Q 24.703125 64.65625 21.53125 62.3125 
Q 17.390625 59.28125 14.984375 53.46875 
Q 12.59375 47.65625 12.5 36.921875 
Q 15.671875 41.75 20.265625 44.09375 
Q 24.859375 46.4375 29.890625 46.4375 
Q 38.671875 46.4375 44.84375 39.96875 
Q 51.03125 33.5 51.03125 23.25 
Q 51.03125 16.5 48.125 10.71875 
Q 45.21875 4.9375 40.140625 1.859375 
Q 35.0625 -1.21875 28.609375 -1.21875 
Q 17.625 -1.21875 10.6875 6.859375 
Q 3.765625 14.9375 3.765625 33.5 
Q 3.765625 54.25 11.421875 63.671875 
Q 18.109375 71.875 29.4375 71.875 
Q 37.890625 71.875 43.28125 67.140625 
Q 48.6875 62.40625 49.75 54.046875 
M 13.875 23.1875 
Q 13.875 18.65625 15.796875 14.5 
Q 17.71875 10.359375 21.1875 8.171875 
Q 24.65625 6 28.46875 6 
Q 34.03125 6 38.03125 10.484375 
Q 42.046875 14.984375 42.046875 22.703125 
Q 42.046875 30.125 38.078125 34.390625 
Q 34.125 38.671875 28.125 38.671875 
Q 22.171875 38.671875 18.015625 34.390625 
Q 13.875 30.125 13.875 23.1875 
" id="ArialMT-36"/>
      </defs>
      <g style="fill:#262626;" transform="translate(356.3915625 332.83046875)scale(0.1 -0.1)">
       <use xlink:href="#ArialMT-36"/>
       <use x="55.615234375" xlink:href="#ArialMT-30"/>
       <use x="111.23046875" xlink:href="#ArialMT-30"/>
       <use x="166.845703125" xlink:href="#ArialMT-30"/>
      </g>
     </g>
    </g>
    <g id="xtick_5">
     <g id="line2d_13">
      <path clip-path="url(#p3f03af70b9)" d="M 456.793437 318.672656 
L 456.793437 11.772656 
" style="fill:none;stroke:#ffffff;stroke-linecap:round;"/>
     </g>
     <g id="line2d_14">
      <g>
       <use style="fill:#262626;stroke:#262626;" x="456.7934375" xlink:href="#m34139c8876" y="318.67265625"/>
      </g>
     </g>
     <g id="line2d_15">
      <g>
       <use style="fill:#262626;stroke:#262626;" x="456.7934375" xlink:href="#m34139c8876" y="11.77265625"/>
      </g>
     </g>
     <g id="text_5">
      <!-- 8000 -->
      <defs>
       <path d="M 17.671875 38.8125 
Q 12.203125 40.828125 9.5625 44.53125 
Q 6.9375 48.25 6.9375 53.421875 
Q 6.9375 61.234375 12.546875 66.546875 
Q 18.171875 71.875 27.484375 71.875 
Q 36.859375 71.875 42.578125 66.421875 
Q 48.296875 60.984375 48.296875 53.171875 
Q 48.296875 48.1875 45.671875 44.5 
Q 43.0625 40.828125 37.75 38.8125 
Q 44.34375 36.671875 47.78125 31.875 
Q 51.21875 27.09375 51.21875 20.453125 
Q 51.21875 11.28125 44.71875 5.03125 
Q 38.234375 -1.21875 27.640625 -1.21875 
Q 17.046875 -1.21875 10.546875 5.046875 
Q 4.046875 11.328125 4.046875 20.703125 
Q 4.046875 27.6875 7.59375 32.390625 
Q 11.140625 37.109375 17.671875 38.8125 
M 15.921875 53.71875 
Q 15.921875 48.640625 19.1875 45.40625 
Q 22.46875 42.1875 27.6875 42.1875 
Q 32.765625 42.1875 36.015625 45.375 
Q 39.265625 48.578125 39.265625 53.21875 
Q 39.265625 58.0625 35.90625 61.359375 
Q 32.5625 64.65625 27.59375 64.65625 
Q 22.5625 64.65625 19.234375 61.421875 
Q 15.921875 58.203125 15.921875 53.71875 
M 13.09375 20.65625 
Q 13.09375 16.890625 14.875 13.375 
Q 16.65625 9.859375 20.171875 7.921875 
Q 23.6875 6 27.734375 6 
Q 34.03125 6 38.125 10.046875 
Q 42.234375 14.109375 42.234375 20.359375 
Q 42.234375 26.703125 38.015625 30.859375 
Q 33.796875 35.015625 27.4375 35.015625 
Q 21.234375 35.015625 17.15625 30.90625 
Q 13.09375 26.8125 13.09375 20.65625 
" id="ArialMT-38"/>
      </defs>
      <g style="fill:#262626;" transform="translate(445.6715625 332.83046875)scale(0.1 -0.1)">
       <use xlink:href="#ArialMT-38"/>
       <use x="55.615234375" xlink:href="#ArialMT-30"/>
       <use x="111.23046875" xlink:href="#ArialMT-30"/>
       <use x="166.845703125" xlink:href="#ArialMT-30"/>
      </g>
     </g>
    </g>
    <g id="text_6">
     <!-- $N$ -->
     <defs>
      <path d="M 4.6875 0 
Q 3.71875 0 3.71875 1.3125 
Q 3.765625 1.5625 3.90625 2.171875 
Q 4.046875 2.78125 4.3125 3.140625 
Q 4.59375 3.515625 4.984375 3.515625 
Q 14.546875 3.515625 16.109375 9.625 
L 29.6875 64.3125 
Q 26.90625 64.796875 20.90625 64.796875 
Q 19.921875 64.796875 19.921875 66.109375 
Q 19.96875 66.359375 20.109375 66.96875 
Q 20.265625 67.578125 20.53125 67.9375 
Q 20.796875 68.3125 21.1875 68.3125 
L 38.484375 68.3125 
Q 39.203125 68.3125 39.40625 67.671875 
L 61.625 14.796875 
L 72.703125 59.078125 
Q 72.90625 60.15625 72.90625 60.59375 
Q 72.90625 64.796875 65.1875 64.796875 
Q 64.203125 64.796875 64.203125 66.109375 
Q 64.546875 67.390625 64.734375 67.84375 
Q 64.9375 68.3125 65.921875 68.3125 
L 87.3125 68.3125 
Q 88.28125 68.3125 88.28125 67 
Q 88.234375 66.75 88.078125 66.140625 
Q 87.9375 65.53125 87.671875 65.15625 
Q 87.40625 64.796875 87.015625 64.796875 
Q 77.4375 64.796875 75.875 58.6875 
L 61.53125 0.875 
Q 61.1875 0 60.5 0 
L 59.28125 0 
Q 58.59375 0 58.40625 0.6875 
L 32.90625 61.1875 
L 32.71875 61.8125 
Q 32.515625 62.015625 32.515625 62.109375 
L 19.28125 9.1875 
Q 19.1875 8.9375 19.140625 8.5625 
Q 19.09375 8.203125 19 7.71875 
Q 19 5.125 21.234375 4.3125 
Q 23.484375 3.515625 26.8125 3.515625 
Q 27.78125 3.515625 27.78125 2.203125 
Q 27.4375 0.828125 27.1875 0.40625 
Q 26.953125 0 26.125 0 
z
" id="Cmmi10-4e"/>
     </defs>
     <g style="fill:#262626;" transform="translate(273.7784375 347.6915625)scale(0.11 -0.11)">
      <use transform="translate(0.0 0.6875)" xlink:href="#Cmmi10-4e"/>
     </g>
    </g>
   </g>
   <g id="matplotlib.axis_2">
    <g id="ytick_1">
     <g id="line2d_16">
      <path clip-path="url(#p3f03af70b9)" d="M 55.033438 318.672656 
L 501.433437 318.672656 
" style="fill:none;stroke:#ffffff;stroke-linecap:round;"/>
     </g>
     <g id="line2d_17">
      <g>
       <use style="fill:#262626;stroke:#262626;" x="55.0334375" xlink:href="#m34139c8876" y="318.67265625"/>
      </g>
     </g>
     <g id="line2d_18">
      <g>
       <use style="fill:#262626;stroke:#262626;" x="501.4334375" xlink:href="#m34139c8876" y="318.67265625"/>
      </g>
     </g>
     <g id="text_7">
      <!-- −500 -->
      <defs>
       <path d="M 52.828125 31.203125 
L 5.5625 31.203125 
L 5.5625 39.40625 
L 52.828125 39.40625 
z
" id="ArialMT-2212"/>
       <path d="M 4.15625 18.75 
L 13.375 19.53125 
Q 14.40625 12.796875 18.140625 9.390625 
Q 21.875 6 27.15625 6 
Q 33.5 6 37.890625 10.78125 
Q 42.28125 15.578125 42.28125 23.484375 
Q 42.28125 31 38.0625 35.34375 
Q 33.84375 39.703125 27 39.703125 
Q 22.75 39.703125 19.328125 37.765625 
Q 15.921875 35.84375 13.96875 32.765625 
L 5.71875 33.84375 
L 12.640625 70.609375 
L 48.25 70.609375 
L 48.25 62.203125 
L 19.671875 62.203125 
L 15.828125 42.96875 
Q 22.265625 47.46875 29.34375 47.46875 
Q 38.71875 47.46875 45.15625 40.96875 
Q 51.609375 34.46875 51.609375 24.265625 
Q 51.609375 14.546875 45.953125 7.46875 
Q 39.0625 -1.21875 27.15625 -1.21875 
Q 17.390625 -1.21875 11.203125 4.25 
Q 5.03125 9.71875 4.15625 18.75 
" id="ArialMT-35"/>
      </defs>
      <g style="fill:#262626;" transform="translate(25.51 321.2578125)scale(0.1 -0.1)">
       <use xlink:href="#ArialMT-2212"/>
       <use x="58.3984375" xlink:href="#ArialMT-35"/>
       <use x="114.013671875" xlink:href="#ArialMT-30"/>
       <use x="169.62890625" xlink:href="#ArialMT-30"/>
      </g>
     </g>
    </g>
    <g id="ytick_2">
     <g id="line2d_19">
      <path clip-path="url(#p3f03af70b9)" d="M 55.033438 274.829799 
L 501.433437 274.829799 
" style="fill:none;stroke:#ffffff;stroke-linecap:round;"/>
     </g>
     <g id="line2d_20">
      <g>
       <use style="fill:#262626;stroke:#262626;" x="55.0334375" xlink:href="#m34139c8876" y="274.829799107"/>
      </g>
     </g>
     <g id="line2d_21">
      <g>
       <use style="fill:#262626;stroke:#262626;" x="501.4334375" xlink:href="#m34139c8876" y="274.829799107"/>
      </g>
     </g>
     <g id="text_8">
      <!-- 0 -->
      <g style="fill:#262626;" transform="translate(42.4725 277.414955357)scale(0.1 -0.1)">
       <use xlink:href="#ArialMT-30"/>
      </g>
     </g>
    </g>
    <g id="ytick_3">
     <g id="line2d_22">
      <path clip-path="url(#p3f03af70b9)" d="M 55.033438 230.986942 
L 501.433437 230.986942 
" style="fill:none;stroke:#ffffff;stroke-linecap:round;"/>
     </g>
     <g id="line2d_23">
      <g>
       <use style="fill:#262626;stroke:#262626;" x="55.0334375" xlink:href="#m34139c8876" y="230.986941964"/>
      </g>
     </g>
     <g id="line2d_24">
      <g>
       <use style="fill:#262626;stroke:#262626;" x="501.4334375" xlink:href="#m34139c8876" y="230.986941964"/>
      </g>
     </g>
     <g id="text_9">
      <!-- 500 -->
      <g style="fill:#262626;" transform="translate(31.350625 233.572098214)scale(0.1 -0.1)">
       <use xlink:href="#ArialMT-35"/>
       <use x="55.615234375" xlink:href="#ArialMT-30"/>
       <use x="111.23046875" xlink:href="#ArialMT-30"/>
      </g>
     </g>
    </g>
    <g id="ytick_4">
     <g id="line2d_25">
      <path clip-path="url(#p3f03af70b9)" d="M 55.033438 187.144085 
L 501.433437 187.144085 
" style="fill:none;stroke:#ffffff;stroke-linecap:round;"/>
     </g>
     <g id="line2d_26">
      <g>
       <use style="fill:#262626;stroke:#262626;" x="55.0334375" xlink:href="#m34139c8876" y="187.144084821"/>
      </g>
     </g>
     <g id="line2d_27">
      <g>
       <use style="fill:#262626;stroke:#262626;" x="501.4334375" xlink:href="#m34139c8876" y="187.144084821"/>
      </g>
     </g>
     <g id="text_10">
      <!-- 1000 -->
      <defs>
       <path d="M 37.25 0 
L 28.46875 0 
L 28.46875 56 
Q 25.296875 52.984375 20.140625 49.953125 
Q 14.984375 46.921875 10.890625 45.40625 
L 10.890625 53.90625 
Q 18.265625 57.375 23.78125 62.296875 
Q 29.296875 67.234375 31.59375 71.875 
L 37.25 71.875 
z
" id="ArialMT-31"/>
      </defs>
      <g style="fill:#262626;" transform="translate(25.7896875 189.729241071)scale(0.1 -0.1)">
       <use xlink:href="#ArialMT-31"/>
       <use x="55.615234375" xlink:href="#ArialMT-30"/>
       <use x="111.23046875" xlink:href="#ArialMT-30"/>
       <use x="166.845703125" xlink:href="#ArialMT-30"/>
      </g>
     </g>
    </g>
    <g id="ytick_5">
     <g id="line2d_28">
      <path clip-path="url(#p3f03af70b9)" d="M 55.033438 143.301228 
L 501.433437 143.301228 
" style="fill:none;stroke:#ffffff;stroke-linecap:round;"/>
     </g>
     <g id="line2d_29">
      <g>
       <use style="fill:#262626;stroke:#262626;" x="55.0334375" xlink:href="#m34139c8876" y="143.301227679"/>
      </g>
     </g>
     <g id="line2d_30">
      <g>
       <use style="fill:#262626;stroke:#262626;" x="501.4334375" xlink:href="#m34139c8876" y="143.301227679"/>
      </g>
     </g>
     <g id="text_11">
      <!-- 1500 -->
      <g style="fill:#262626;" transform="translate(25.7896875 145.886383929)scale(0.1 -0.1)">
       <use xlink:href="#ArialMT-31"/>
       <use x="55.615234375" xlink:href="#ArialMT-35"/>
       <use x="111.23046875" xlink:href="#ArialMT-30"/>
       <use x="166.845703125" xlink:href="#ArialMT-30"/>
      </g>
     </g>
    </g>
    <g id="ytick_6">
     <g id="line2d_31">
      <path clip-path="url(#p3f03af70b9)" d="M 55.033438 99.458371 
L 501.433437 99.458371 
" style="fill:none;stroke:#ffffff;stroke-linecap:round;"/>
     </g>
     <g id="line2d_32">
      <g>
       <use style="fill:#262626;stroke:#262626;" x="55.0334375" xlink:href="#m34139c8876" y="99.4583705357"/>
      </g>
     </g>
     <g id="line2d_33">
      <g>
       <use style="fill:#262626;stroke:#262626;" x="501.4334375" xlink:href="#m34139c8876" y="99.4583705357"/>
      </g>
     </g>
     <g id="text_12">
      <!-- 2000 -->
      <g style="fill:#262626;" transform="translate(25.7896875 102.043526786)scale(0.1 -0.1)">
       <use xlink:href="#ArialMT-32"/>
       <use x="55.615234375" xlink:href="#ArialMT-30"/>
       <use x="111.23046875" xlink:href="#ArialMT-30"/>
       <use x="166.845703125" xlink:href="#ArialMT-30"/>
      </g>
     </g>
    </g>
    <g id="ytick_7">
     <g id="line2d_34">
      <path clip-path="url(#p3f03af70b9)" d="M 55.033438 55.615513 
L 501.433437 55.615513 
" style="fill:none;stroke:#ffffff;stroke-linecap:round;"/>
     </g>
     <g id="line2d_35">
      <g>
       <use style="fill:#262626;stroke:#262626;" x="55.0334375" xlink:href="#m34139c8876" y="55.6155133929"/>
      </g>
     </g>
     <g id="line2d_36">
      <g>
       <use style="fill:#262626;stroke:#262626;" x="501.4334375" xlink:href="#m34139c8876" y="55.6155133929"/>
      </g>
     </g>
     <g id="text_13">
      <!-- 2500 -->
      <g style="fill:#262626;" transform="translate(25.7896875 58.2006696429)scale(0.1 -0.1)">
       <use xlink:href="#ArialMT-32"/>
       <use x="55.615234375" xlink:href="#ArialMT-35"/>
       <use x="111.23046875" xlink:href="#ArialMT-30"/>
       <use x="166.845703125" xlink:href="#ArialMT-30"/>
      </g>
     </g>
    </g>
    <g id="ytick_8">
     <g id="line2d_37">
      <path clip-path="url(#p3f03af70b9)" d="M 55.033438 11.772656 
L 501.433437 11.772656 
" style="fill:none;stroke:#ffffff;stroke-linecap:round;"/>
     </g>
     <g id="line2d_38">
      <g>
       <use style="fill:#262626;stroke:#262626;" x="55.0334375" xlink:href="#m34139c8876" y="11.77265625"/>
      </g>
     </g>
     <g id="line2d_39">
      <g>
       <use style="fill:#262626;stroke:#262626;" x="501.4334375" xlink:href="#m34139c8876" y="11.77265625"/>
      </g>
     </g>
     <g id="text_14">
      <!-- 3000 -->
      <defs>
       <path d="M 4.203125 18.890625 
L 12.984375 20.0625 
Q 14.5 12.59375 18.140625 9.296875 
Q 21.78125 6 27 6 
Q 33.203125 6 37.46875 10.296875 
Q 41.75 14.59375 41.75 20.953125 
Q 41.75 27 37.796875 30.921875 
Q 33.84375 34.859375 27.734375 34.859375 
Q 25.25 34.859375 21.53125 33.890625 
L 22.515625 41.609375 
Q 23.390625 41.5 23.921875 41.5 
Q 29.546875 41.5 34.03125 44.421875 
Q 38.53125 47.359375 38.53125 53.46875 
Q 38.53125 58.296875 35.25 61.46875 
Q 31.984375 64.65625 26.8125 64.65625 
Q 21.6875 64.65625 18.265625 61.421875 
Q 14.84375 58.203125 13.875 51.765625 
L 5.078125 53.328125 
Q 6.6875 62.15625 12.390625 67.015625 
Q 18.109375 71.875 26.609375 71.875 
Q 32.46875 71.875 37.390625 69.359375 
Q 42.328125 66.84375 44.9375 62.5 
Q 47.5625 58.15625 47.5625 53.265625 
Q 47.5625 48.640625 45.0625 44.828125 
Q 42.578125 41.015625 37.703125 38.765625 
Q 44.046875 37.3125 47.5625 32.6875 
Q 51.078125 28.078125 51.078125 21.140625 
Q 51.078125 11.765625 44.234375 5.25 
Q 37.40625 -1.265625 26.953125 -1.265625 
Q 17.53125 -1.265625 11.296875 4.34375 
Q 5.078125 9.96875 4.203125 18.890625 
" id="ArialMT-33"/>
      </defs>
      <g style="fill:#262626;" transform="translate(25.7896875 14.3578125)scale(0.1 -0.1)">
       <use xlink:href="#ArialMT-33"/>
       <use x="55.615234375" xlink:href="#ArialMT-30"/>
       <use x="111.23046875" xlink:href="#ArialMT-30"/>
       <use x="166.845703125" xlink:href="#ArialMT-30"/>
      </g>
     </g>
    </g>
    <g id="text_15">
     <!-- $\langle k \rangle$ -->
     <defs>
      <path d="M 5.328125 1.8125 
Q 5.328125 2.390625 5.421875 2.6875 
L 19.921875 60.5 
Q 20.3125 62.203125 20.40625 63.1875 
Q 20.40625 64.796875 13.921875 64.796875 
Q 12.890625 64.796875 12.890625 66.109375 
Q 12.9375 66.359375 13.109375 66.984375 
Q 13.28125 67.625 13.546875 67.96875 
Q 13.8125 68.3125 14.3125 68.3125 
L 27.78125 69.390625 
L 28.078125 69.390625 
Q 28.078125 69.28125 28.421875 69.109375 
Q 28.765625 68.953125 28.8125 68.890625 
Q 29 68.40625 29 68.109375 
L 18.5 26.3125 
Q 22.125 27.828125 27.609375 33.515625 
Q 33.109375 39.203125 36.203125 41.6875 
Q 39.3125 44.1875 44 44.1875 
Q 46.78125 44.1875 48.734375 42.28125 
Q 50.6875 40.375 50.6875 37.59375 
Q 50.6875 35.84375 49.953125 34.34375 
Q 49.21875 32.859375 47.890625 31.921875 
Q 46.578125 31 44.828125 31 
Q 43.21875 31 42.109375 32 
Q 41.015625 33.015625 41.015625 34.625 
Q 41.015625 37.015625 42.703125 38.640625 
Q 44.390625 40.28125 46.78125 40.28125 
Q 45.796875 41.609375 43.796875 41.609375 
Q 40.828125 41.609375 38.0625 39.890625 
Q 35.296875 38.1875 32.09375 34.984375 
Q 28.90625 31.78125 26.265625 29.125 
Q 23.640625 26.46875 21.390625 25.09375 
Q 27.296875 24.421875 31.640625 22 
Q 35.984375 19.578125 35.984375 14.59375 
Q 35.984375 13.578125 35.59375 12.015625 
Q 34.71875 8.25 34.71875 6 
Q 34.71875 1.515625 37.796875 1.515625 
Q 41.40625 1.515625 43.28125 5.46875 
Q 45.171875 9.421875 46.390625 14.703125 
Q 46.578125 15.28125 47.21875 15.28125 
L 48.390625 15.28125 
Q 48.78125 15.28125 49.046875 15.03125 
Q 49.3125 14.796875 49.3125 14.40625 
Q 49.3125 14.3125 49.21875 14.109375 
Q 45.453125 -1.125 37.59375 -1.125 
Q 34.765625 -1.125 32.59375 0.1875 
Q 30.421875 1.515625 29.25 3.78125 
Q 28.078125 6.0625 28.078125 8.890625 
Q 28.078125 10.5 28.515625 12.203125 
Q 28.8125 13.375 28.8125 14.40625 
Q 28.8125 18.265625 25.390625 20.265625 
Q 21.96875 22.265625 17.578125 22.703125 
L 12.5 2.296875 
Q 12.109375 0.78125 10.984375 -0.171875 
Q 9.859375 -1.125 8.40625 -1.125 
Q 7.125 -1.125 6.21875 -0.265625 
Q 5.328125 0.59375 5.328125 1.8125 
" id="Cmmi10-6b"/>
      <path d="M 7.8125 -114.015625 
Q 7.8125 -113.484375 8.015625 -113.28125 
L 33.109375 -56 
L 8.015625 1.3125 
Q 7.8125 1.515625 7.8125 2 
Q 7.8125 2.734375 8.390625 3.359375 
Q 8.984375 4 9.8125 4 
Q 10.984375 4 11.71875 2.78125 
L 37.203125 -55.328125 
Q 37.3125 -55.515625 37.3125 -56 
Q 37.3125 -56.5 37.203125 -56.78125 
L 11.71875 -114.796875 
Q 10.9375 -116.015625 9.8125 -116.015625 
Q 8.984375 -116.015625 8.390625 -115.375 
Q 7.8125 -114.75 7.8125 -114.015625 
" id="Cmex10-ae"/>
      <path d="M 35.5 -114.796875 
L 10.015625 -56.78125 
Q 9.8125 -56.5 9.8125 -56 
Q 9.8125 -55.515625 10.015625 -55.328125 
L 35.5 2.78125 
Q 35.984375 4 37.3125 4 
Q 38.03125 4 38.671875 3.359375 
Q 39.3125 2.734375 39.3125 2 
Q 39.3125 1.515625 39.203125 1.3125 
L 14.015625 -56 
L 39.203125 -113.28125 
Q 39.3125 -113.484375 39.3125 -114.015625 
Q 39.3125 -114.75 38.671875 -115.375 
Q 38.03125 -116.015625 37.3125 -116.015625 
Q 36.03125 -116.015625 35.5 -114.796875 
" id="Cmex10-ad"/>
     </defs>
     <g style="fill:#262626;" transform="translate(17.98 173.30765625)rotate(-90.0)scale(0.11 -0.11)">
      <use transform="translate(0.0 94.0)" xlink:href="#Cmex10-ad"/>
      <use transform="translate(47.216796875 0.658854166667)" xlink:href="#Cmmi10-6b"/>
      <use transform="translate(99.21875 94.0)" xlink:href="#Cmex10-ae"/>
     </g>
    </g>
   </g>
   <g id="line2d_40">
    <path clip-path="url(#p3f03af70b9)" d="M 99.718078 274.847915 
L 99.729636 274.841104 
L 99.744187 274.832528 
L 99.762506 274.821732 
L 99.785568 274.808141 
L 99.814602 274.79103 
L 99.851153 274.76949 
L 99.897167 274.742372 
L 99.955097 274.708232 
L 100.028026 274.665252 
L 100.119838 274.611145 
L 100.235422 274.543027 
L 100.380934 274.457272 
L 100.564123 274.349312 
L 100.794744 274.213399 
L 101.085078 274.042295 
L 101.450588 273.826888 
L 101.910737 273.555706 
L 102.490031 273.214309 
L 103.219319 272.784515 
L 104.137438 272.243436 
L 105.293281 271.562259 
L 106.748401 270.704707 
L 108.580288 269.625113 
L 110.886499 268.265985 
L 113.789845 266.554944 
L 117.444942 264.400871 
L 122.046436 261.689054 
L 127.839373 258.275079 
L 135.13225 253.977139 
L 144.313438 248.566353 
L 155.871868 241.754577 
L 170.42307 233.179058 
L 188.741947 222.383121 
L 211.804048 208.79184 
L 240.837512 191.681432 
L 277.388478 170.140704 
L 323.403419 143.022535 
L 381.332796 108.882782 
L 454.261561 65.90338 
" style="fill:none;stroke:#ff0000;stroke-dasharray:6.000000,6.000000;stroke-dashoffset:0.0;stroke-width:1.75;"/>
   </g>
   <g id="patch_3">
    <path d="M 55.033438 11.772656 
L 501.433437 11.772656 
" style="fill:none;"/>
   </g>
   <g id="patch_4">
    <path d="M 501.433437 318.672656 
L 501.433437 11.772656 
" style="fill:none;"/>
   </g>
   <g id="patch_5">
    <path d="M 55.033438 318.672656 
L 501.433437 318.672656 
" style="fill:none;"/>
   </g>
   <g id="patch_6">
    <path d="M 55.033438 318.672656 
L 55.033438 11.772656 
" style="fill:none;"/>
   </g>
   <g id="PathCollection_1">
    <defs>
     <path d="M 0 2.236068 
C 0.593012 2.236068 1.161816 2.000462 1.581139 1.581139 
C 2.000462 1.161816 2.236068 0.593012 2.236068 0 
C 2.236068 -0.593012 2.000462 -1.161816 1.581139 -1.581139 
C 1.161816 -2.000462 0.593012 -2.236068 0 -2.236068 
C -0.593012 -2.236068 -1.161816 -2.000462 -1.581139 -1.581139 
C -2.000462 -1.161816 -2.236068 -0.593012 -2.236068 0 
C -2.236068 0.593012 -2.000462 1.161816 -1.581139 1.581139 
C -1.161816 2.000462 -0.593012 2.236068 0 2.236068 
z
" id="m7f1ece0708" style="stroke:#000000;stroke-width:0.3;"/>
    </defs>
    <g clip-path="url(#p3f03af70b9)">
     <use style="fill:#0000ff;stroke:#000000;stroke-width:0.3;" x="99.7180775" xlink:href="#m7f1ece0708" y="274.829799107"/>
     <use style="fill:#0000ff;stroke:#000000;stroke-width:0.3;" x="99.7296359304" xlink:href="#m7f1ece0708" y="274.829799107"/>
     <use style="fill:#0000ff;stroke:#000000;stroke-width:0.3;" x="99.7441871321" xlink:href="#m7f1ece0708" y="274.829799107"/>
     <use style="fill:#0000ff;stroke:#000000;stroke-width:0.3;" x="99.7625060097" xlink:href="#m7f1ece0708" y="274.829799107"/>
     <use style="fill:#0000ff;stroke:#000000;stroke-width:0.3;" x="99.7855681103" xlink:href="#m7f1ece0708" y="274.829799107"/>
     <use style="fill:#0000ff;stroke:#000000;stroke-width:0.3;" x="99.8146015747" xlink:href="#m7f1ece0708" y="274.712884821"/>
     <use style="fill:#0000ff;stroke:#000000;stroke-width:0.3;" x="99.8511525409" xlink:href="#m7f1ece0708" y="274.771341964"/>
     <use style="fill:#0000ff;stroke:#000000;stroke-width:0.3;" x="99.8971674811" xlink:href="#m7f1ece0708" y="274.794724821"/>
     <use style="fill:#0000ff;stroke:#000000;stroke-width:0.3;" x="99.9550968586" xlink:href="#m7f1ece0708" y="274.654427679"/>
     <use style="fill:#0000ff;stroke:#000000;stroke-width:0.3;" x="100.028025624" xlink:href="#m7f1ece0708" y="274.754639923"/>
     <use style="fill:#0000ff;stroke:#000000;stroke-width:0.3;" x="100.1198375" xlink:href="#m7f1ece0708" y="274.584279107"/>
     <use style="fill:#0000ff;stroke:#000000;stroke-width:0.3;" x="100.235421804" xlink:href="#m7f1ece0708" y="274.595970536"/>
     <use style="fill:#0000ff;stroke:#000000;stroke-width:0.3;" x="100.380933821" xlink:href="#m7f1ece0708" y="274.490747679"/>
     <use style="fill:#0000ff;stroke:#000000;stroke-width:0.3;" x="100.564122597" xlink:href="#m7f1ece0708" y="274.275994596"/>
     <use style="fill:#0000ff;stroke:#000000;stroke-width:0.3;" x="100.794743603" xlink:href="#m7f1ece0708" y="274.191447107"/>
     <use style="fill:#0000ff;stroke:#000000;stroke-width:0.3;" x="101.085078247" xlink:href="#m7f1ece0708" y="274.066084821"/>
     <use style="fill:#0000ff;stroke:#000000;stroke-width:0.3;" x="101.450587909" xlink:href="#m7f1ece0708" y="273.827034272"/>
     <use style="fill:#0000ff;stroke:#000000;stroke-width:0.3;" x="101.910737311" xlink:href="#m7f1ece0708" y="273.623243679"/>
     <use style="fill:#0000ff;stroke:#000000;stroke-width:0.3;" x="102.490031086" xlink:href="#m7f1ece0708" y="273.165162372"/>
     <use style="fill:#0000ff;stroke:#000000;stroke-width:0.3;" x="103.21931874" xlink:href="#m7f1ece0708" y="272.805258058"/>
     <use style="fill:#0000ff;stroke:#000000;stroke-width:0.3;" x="104.1374375" xlink:href="#m7f1ece0708" y="272.304450536"/>
     <use style="fill:#0000ff;stroke:#000000;stroke-width:0.3;" x="105.293280538" xlink:href="#m7f1ece0708" y="271.647859907"/>
     <use style="fill:#0000ff;stroke:#000000;stroke-width:0.3;" x="106.748400711" xlink:href="#m7f1ece0708" y="270.583146666"/>
     <use style="fill:#0000ff;stroke:#000000;stroke-width:0.3;" x="108.580288474" xlink:href="#m7f1ece0708" y="269.676170392"/>
     <use style="fill:#0000ff;stroke:#000000;stroke-width:0.3;" x="110.88649853" xlink:href="#m7f1ece0708" y="268.239746062"/>
     <use style="fill:#0000ff;stroke:#000000;stroke-width:0.3;" x="113.789844975" xlink:href="#m7f1ece0708" y="266.585122073"/>
     <use style="fill:#0000ff;stroke:#000000;stroke-width:0.3;" x="117.444941594" xlink:href="#m7f1ece0708" y="264.377573838"/>
     <use style="fill:#0000ff;stroke:#000000;stroke-width:0.3;" x="122.046435609" xlink:href="#m7f1ece0708" y="261.724197738"/>
     <use style="fill:#0000ff;stroke:#000000;stroke-width:0.3;" x="127.839373358" xlink:href="#m7f1ece0708" y="258.207371352"/>
     <use style="fill:#0000ff;stroke:#000000;stroke-width:0.3;" x="135.132249898" xlink:href="#m7f1ece0708" y="253.957506916"/>
     <use style="fill:#0000ff;stroke:#000000;stroke-width:0.3;" x="144.3134375" xlink:href="#m7f1ece0708" y="248.507249164"/>
     <use style="fill:#0000ff;stroke:#000000;stroke-width:0.3;" x="155.871867882" xlink:href="#m7f1ece0708" y="241.696587933"/>
     <use style="fill:#0000ff;stroke:#000000;stroke-width:0.3;" x="170.423069611" xlink:href="#m7f1ece0708" y="233.295999107"/>
     <use style="fill:#0000ff;stroke:#000000;stroke-width:0.3;" x="188.74194724" xlink:href="#m7f1ece0708" y="222.366754983"/>
     <use style="fill:#0000ff;stroke:#000000;stroke-width:0.3;" x="211.804047803" xlink:href="#m7f1ece0708" y="208.784891171"/>
     <use style="fill:#0000ff;stroke:#000000;stroke-width:0.3;" x="240.83751225" xlink:href="#m7f1ece0708" y="191.623765494"/>
     <use style="fill:#0000ff;stroke:#000000;stroke-width:0.3;" x="277.388478435" xlink:href="#m7f1ece0708" y="170.179663377"/>
     <use style="fill:#0000ff;stroke:#000000;stroke-width:0.3;" x="323.403418591" xlink:href="#m7f1ece0708" y="143.032308489"/>
     <use style="fill:#0000ff;stroke:#000000;stroke-width:0.3;" x="381.332796076" xlink:href="#m7f1ece0708" y="108.832778117"/>
     <use style="fill:#0000ff;stroke:#000000;stroke-width:0.3;" x="454.261561481" xlink:href="#m7f1ece0708" y="65.9446542932"/>
    </g>
   </g>
  </g>
 </g>
 <defs>
  <clipPath id="p3f03af70b9">
   <rect height="306.9" width="446.4" x="55.0334375" y="11.77265625"/>
  </clipPath>
 </defs>
</svg>
